<?xml version="1.0" encoding="UTF-8"?>
<svg id="Capa_1" xmlns="http://www.w3.org/2000/svg" version="1.1" viewBox="0 0 256 256">
  <!-- Generator: Adobe Illustrator 29.2.1, SVG Export Plug-In . SVG Version: 2.1.0 Build 116)  -->
  <defs>
    <style>
      .st0 {
        fill: #ffda0f;
      }

      .st1 {
        fill: #00004c;
      }
    </style>
  </defs>
  <path class="st0" d="M127.39,159.73c.17.17.39.25.61.25s.44-.08.61-.25l51.44-51.44c.34-.34.34-.88,0-1.22l-51.44-51.45c-.16-.16-.38-.25-.61-.25s-.45.09-.61.25l-51.45,51.45c-.16.16-.25.38-.25.61,0,.23.09.45.25.61l51.45,51.44Z"/>
  <g>
    <path class="st1" d="M25.7,180.96h-6.2c-.84,0-1.47.61-1.47,1.41v16.46c0,.89.72,1.36,1.44,1.36.37,0,.71-.12.97-.34.3-.25.47-.63.47-1.05v-4.19h4.7c5.72,0,7.76-3.45,7.76-6.67s-2.4-6.98-7.67-6.98M30.52,187.94c.02,1.01-.33,1.94-1.01,2.63-.86.88-2.21,1.35-3.9,1.35h-4.7v-8.3h4.82c3.08,0,4.76,2.22,4.79,4.31"/>
    <path class="st1" d="M19.47,200.53c-.87,0-1.79-.6-1.79-1.71v-16.46c0-1,.78-1.76,1.82-1.76h6.2c5.51,0,8.01,3.8,8.01,7.33s-2.13,7.02-8.11,7.02h-4.35v3.84c0,.53-.21,1-.59,1.32-.32.27-.75.42-1.2.42ZM19.5,181.3c-.65,0-1.12.45-1.12,1.06v16.46c0,1.07,1.28,1.23,1.84.75.22-.19.34-.46.34-.78v-4.19c0-.19.16-.35.35-.35h4.7c5.46,0,7.41-3.27,7.41-6.33s-2.29-6.63-7.32-6.63h-6.2ZM25.61,192.28h-4.7c-.19,0-.35-.16-.35-.35v-8.3c0-.19.16-.35.35-.35h4.82c3.3,0,5.11,2.4,5.14,4.66.03,1.1-.37,2.13-1.11,2.88-.93.95-2.36,1.45-4.15,1.45ZM21.26,191.58h4.35c1.59,0,2.86-.43,3.65-1.24.61-.62.93-1.47.91-2.38h0c-.02-1.93-1.59-3.97-4.44-3.97h-4.47v7.6Z"/>
  </g>
  <g>
    <path class="st1" d="M50.08,197.27h-10.87v-5.38h10.34c.39,0,.73-.15.97-.42.2-.24.32-.55.32-.88,0-.65-.45-1.34-1.28-1.34h-10.34v-5.61h10.87c.87,0,1.33-.69,1.33-1.35s-.45-1.3-1.31-1.3h-12.06c-.98,0-1.72.7-1.72,1.64v15.69c0,.95.74,1.66,1.72,1.66h12.03c.53,0,.85-.22,1.03-.4.22-.24.35-.56.35-.9,0-.69-.51-1.4-1.38-1.4"/>
    <path class="st1" d="M50.08,200.32h-12.03c-1.18,0-2.07-.86-2.07-2.01v-15.69c0-1.13.89-1.99,2.07-1.99h12.06c1.07,0,1.66.85,1.66,1.65s-.59,1.7-1.68,1.7h-10.53v4.91h9.99c1.06,0,1.63.87,1.63,1.69,0,.42-.14.81-.4,1.11-.3.35-.74.54-1.23.54h-9.99v4.68h10.53c1.08,0,1.72.89,1.72,1.75,0,.44-.16.84-.44,1.14-.22.23-.62.51-1.28.51ZM38.05,181.33c-.8,0-1.38.54-1.38,1.29v15.69c0,.75.59,1.31,1.38,1.31h12.03c.41,0,.65-.16.78-.3.16-.17.25-.41.25-.66,0-.52-.38-1.05-1.03-1.05h-10.87c-.19,0-.35-.16-.35-.35v-5.38c0-.19.16-.35.35-.35h10.34c.29,0,.54-.11.7-.3.15-.17.23-.41.23-.66,0-.4-.25-.99-.93-.99h-10.34c-.19,0-.35-.16-.35-.35v-5.61c0-.19.16-.35.35-.35h10.87c.72,0,.99-.6.99-1,0-.46-.3-.95-.96-.95h-12.06Z"/>
  </g>
  <g>
    <path class="st1" d="M70.7,187.51c0-4.53-3.96-6.55-7.88-6.55h-6.77c-.86,0-1.47.58-1.47,1.41v16.4c0,1.81,2.91,1.8,2.91-.03v-5.13h4.95l5.66,6.13c.3.31.68.48,1.07.48.12,0,.24-.02.36-.05.5-.13.89-.5,1.03-.98.13-.48-.03-.99-.43-1.39l-4.14-4.46c3.04-.75,4.71-2.79,4.71-5.82M67.76,187.52c.02.85-.26,1.6-.81,2.17-.82.85-2.24,1.29-4.1,1.29h-5.36v-7.3h5.36c2.91,0,4.88,1.54,4.9,3.83"/>
    <path class="st1" d="M69.18,200.56c-.49,0-.96-.21-1.32-.58l-5.56-6.02h-4.45v4.78c0,2.25-3.61,2.28-3.61.03v-16.4c0-1.02.76-1.76,1.81-1.76h6.77c4.1,0,8.23,2.13,8.23,6.9,0,3-1.56,5.11-4.41,6.01l3.75,4.05c.48.48.67,1.13.51,1.72-.16.59-.65,1.06-1.28,1.22-.15.04-.3.06-.45.06ZM57.5,193.26h4.95c.1,0,.19.04.26.11l5.66,6.13c.3.31.68.43,1.09.33.38-.1.68-.38.77-.73.1-.35-.03-.74-.34-1.05l-4.15-4.47c-.08-.09-.11-.22-.08-.34.04-.12.13-.21.25-.24,2.91-.71,4.44-2.61,4.44-5.49,0-4.29-3.78-6.2-7.53-6.2h-6.77c-.67,0-1.12.43-1.12,1.06v16.4c0,.69.55,1,1.09,1s1.12-.32,1.12-1.03v-5.13c0-.19.16-.35.35-.35ZM62.86,191.33h-5.36c-.19,0-.35-.16-.35-.35v-7.3c0-.19.16-.35.35-.35h5.36c3.11,0,5.22,1.68,5.25,4.17.03.95-.29,1.79-.91,2.42-.89.92-2.39,1.4-4.35,1.4ZM57.85,190.64h5.01c1.76,0,3.09-.41,3.85-1.19.48-.5.73-1.16.71-1.92h0c-.03-2.09-1.86-3.49-4.56-3.49h-5.01v6.6Z"/>
  </g>
  <g>
    <path class="st1" d="M87.12,197.27h-10.87v-5.38h10.33c.39,0,.74-.15.97-.42.21-.24.32-.55.32-.89,0-.65-.45-1.34-1.29-1.34h-10.33v-5.61h10.87c.87,0,1.34-.69,1.34-1.35,0-.34-.12-.65-.33-.89-.17-.19-.48-.41-.98-.41h-12.05c-.99,0-1.73.7-1.73,1.64v15.69c0,.95.74,1.66,1.73,1.66h12.03c.53,0,.85-.22,1.03-.4.22-.24.35-.55.35-.9,0-.69-.51-1.4-1.38-1.4"/>
    <path class="st1" d="M87.12,200.32h-12.03c-1.19,0-2.08-.86-2.08-2.01v-15.69c0-1.13.89-1.99,2.08-1.99h12.05c.63,0,1.02.29,1.24.53.27.3.42.7.42,1.12,0,.82-.59,1.7-1.69,1.7h-10.53v4.91h9.98c1.07,0,1.64.87,1.64,1.69,0,.42-.14.82-.4,1.12-.3.35-.74.54-1.24.54h-9.98v4.68h10.53c1.08,0,1.73.89,1.73,1.75,0,.44-.16.84-.44,1.14-.22.23-.63.51-1.28.51ZM75.09,181.33c-.79,0-1.38.55-1.38,1.29v15.69c0,.75.59,1.31,1.38,1.31h12.03c.41,0,.65-.16.78-.3.16-.17.25-.4.25-.66,0-.52-.38-1.05-1.03-1.05h-10.87c-.19,0-.35-.16-.35-.35v-5.38c0-.19.16-.35.35-.35h10.33c.29,0,.54-.11.71-.3.15-.17.23-.41.23-.66,0-.4-.25-.99-.94-.99h-10.33c-.19,0-.35-.16-.35-.35v-5.61c0-.19.16-.35.35-.35h10.87c.73,0,.99-.6.99-1,0-.25-.08-.48-.24-.65-.18-.2-.42-.3-.72-.3h-12.05Z"/>
  </g>
  <g>
    <path class="st1" d="M108.35,181.71c-.23-.48-.76-.76-1.46-.76h-13.63c-.91.06-1.36.76-1.33,1.42.02.64.5,1.28,1.36,1.28h10.67l-12.21,13.99c-.41.5-.52,1.08-.29,1.56.23.49.75.77,1.44.77h14.14c.95-.06,1.42-.78,1.4-1.46-.02-.66-.52-1.33-1.43-1.33h-11.29l12.32-13.85c.43-.53.54-1.14.31-1.62"/>
    <path class="st1" d="M92.89,200.32c-.82,0-1.46-.35-1.75-.97-.28-.6-.16-1.32.34-1.93l11.72-13.42h-9.9c-1.09,0-1.68-.81-1.71-1.62-.03-.83.53-1.71,1.66-1.78h13.66c.83,0,1.48.35,1.77.95h0c.29.61.16,1.35-.35,1.99l-11.82,13.28h10.51c1.13,0,1.75.84,1.78,1.67.02.85-.56,1.75-1.73,1.82h-14.16ZM106.9,181.3h-13.63c-.69.05-1,.58-.99,1.06.02.45.34.94,1.01.94h10.67c.14,0,.26.08.32.2.06.12.04.27-.05.37l-12.21,13.99c-.31.38-.41.83-.24,1.18.17.36.58.57,1.12.57h14.14c.74-.04,1.07-.6,1.06-1.1-.01-.48-.36-.99-1.08-.99h-11.29c-.14,0-.26-.08-.32-.21s-.03-.27.06-.37l12.32-13.85c.33-.41.43-.88.26-1.24-.17-.35-.59-.56-1.14-.56Z"/>
  </g>
  <g>
    <path class="st1" d="M136.52,180.85c-.64-.18-1.31.1-1.71.74l-7.54,10.66-7.51-10.63c-.35-.64-1.01-.95-1.65-.79-.65.17-1.06.76-1.06,1.5v16.46c0,.43.17.82.47,1.08.77.68,2.44.35,2.44-1.08v-11.63l5.67,8.37c.54.76,1.14.9,1.53.89.58-.02,1.13-.38,1.51-.97l5.96-8.37v11.71c0,.95.73,1.44,1.46,1.44s1.46-.5,1.46-1.44v-16.46c0-.72-.4-1.3-1.02-1.48"/>
    <path class="st1" d="M136.07,200.59c-.88,0-1.81-.63-1.81-1.79v-10.62l-5.33,7.48c-.43.69-1.08,1.1-1.78,1.12-.48,0-1.21-.17-1.83-1.04l-5.03-7.43v10.49c0,.73-.36,1.31-1,1.6-.67.3-1.5.2-2.02-.26-.38-.33-.58-.81-.58-1.34v-16.46c0-.91.52-1.63,1.33-1.84.8-.2,1.62.18,2.04.96l7.21,10.19,7.25-10.26c.48-.75,1.3-1.1,2.09-.87,0,0,0,0,0,0,.77.22,1.27.94,1.27,1.82v16.46c0,1.16-.93,1.79-1.81,1.79ZM134.62,186.73s.07,0,.11.02c.14.05.24.18.24.33v11.71c0,.75.58,1.09,1.11,1.09s1.11-.34,1.11-1.09v-16.46c0-.56-.3-1.01-.76-1.15-.49-.14-1,.09-1.32.59l-7.55,10.67c-.07.09-.17.15-.28.15h0c-.11,0-.22-.06-.28-.15l-7.51-10.63c-.29-.53-.8-.77-1.28-.65-.49.13-.8.58-.8,1.17v16.46c0,.33.12.62.35.82.31.28.85.34,1.27.14.22-.1.59-.36.59-.97v-11.63c0-.15.1-.29.25-.33.15-.04.3.01.39.14l5.67,8.37c.44.62.94.75,1.24.74.45-.01.91-.32,1.22-.81l5.98-8.39c.07-.09.17-.15.28-.15Z"/>
  </g>
  <g>
    <path class="st1" d="M151.72,180.73c-1.14-.14-2.13-.13-3.15,0-4.67.74-7.92,4.62-7.92,9.44,0,5.96,3.98,10.12,9.67,10.12s9.55-4.35,9.55-10.12c0-4.74-3.42-8.71-8.16-9.44M156.94,190.25c0,4.27-2.72,7.25-6.61,7.25s-6.71-2.98-6.71-7.25c0-3.67,2.06-6.27,5.37-6.79.38-.05.77-.08,1.16-.08s.79.03,1.2.08c3.3.53,5.6,3.32,5.6,6.79"/>
    <path class="st1" d="M150.33,200.64c-5.9,0-10.02-4.31-10.02-10.47,0-5,3.38-9.02,8.22-9.78,1.05-.14,2.08-.14,3.24,0,0,0,0,0,.01,0,4.9.76,8.45,4.88,8.45,9.79,0,5.97-4.26,10.47-9.9,10.47ZM150.11,180.98c-.5,0-.99.03-1.49.1-4.48.71-7.62,4.45-7.62,9.09,0,5.75,3.83,9.77,9.32,9.77s9.2-4.2,9.2-9.77c0-4.56-3.3-8.39-7.86-9.1-.55-.07-1.06-.1-1.56-.1ZM150.33,197.85c-4.15,0-7.05-3.12-7.05-7.6,0-3.85,2.17-6.58,5.66-7.13.79-.11,1.63-.11,2.46,0,3.48.56,5.9,3.5,5.9,7.14,0,4.47-2.86,7.6-6.96,7.6ZM150.15,183.73c-.38,0-.75.03-1.11.08-3.12.49-5.07,2.96-5.07,6.44,0,4.06,2.61,6.9,6.36,6.9s6.27-2.84,6.27-6.9c0-3.29-2.18-5.94-5.3-6.45-.37-.05-.76-.08-1.14-.08Z"/>
  </g>
  <g>
    <path class="st1" d="M179.18,187.51c0-4.53-3.96-6.55-7.88-6.55h-6.77c-.86,0-1.46.58-1.46,1.41v16.4c0,1.81,2.9,1.8,2.9-.03v-5.13h4.95l5.66,6.12c.3.31.68.48,1.07.48.12,0,.24-.01.36-.05.5-.12.9-.51,1.03-.98.13-.48-.03-.99-.43-1.39l-4.13-4.47c3.04-.75,4.7-2.79,4.7-5.82M176.24,187.52c.02.85-.26,1.6-.81,2.17-.83.85-2.24,1.3-4.09,1.3h-5.36v-7.3h5.36c2.9,0,4.87,1.54,4.9,3.83"/>
    <path class="st1" d="M177.66,200.56c-.49,0-.96-.21-1.32-.58l-5.56-6.02h-4.45v4.78c0,1.13-.91,1.73-1.81,1.73h0c-.89,0-1.79-.58-1.79-1.7v-16.4c0-1.02.76-1.76,1.81-1.76h6.77c4.1,0,8.23,2.13,8.23,6.9,0,2.99-1.56,5.11-4.41,6.01l3.75,4.05c.48.48.68,1.13.51,1.72-.16.59-.66,1.07-1.28,1.22-.14.04-.29.06-.44.06ZM165.98,193.26h4.95c.1,0,.19.04.26.11l5.66,6.12c.3.31.7.43,1.08.33.38-.09.68-.38.78-.73.1-.35-.03-.74-.34-1.05l-4.14-4.48c-.08-.09-.11-.22-.08-.34s.13-.21.25-.24c2.9-.71,4.44-2.61,4.44-5.49,0-4.29-3.78-6.2-7.53-6.2h-6.77c-.67,0-1.11.43-1.11,1.06v16.4c0,.69.55,1,1.09,1,.56,0,1.12-.32,1.12-1.03v-5.13c0-.19.16-.35.35-.35ZM171.34,191.33h-5.36c-.19,0-.35-.16-.35-.35v-7.3c0-.19.16-.35.35-.35h5.36c3.11,0,5.22,1.68,5.25,4.17.02.95-.29,1.78-.91,2.42-.89.92-2.39,1.4-4.34,1.4ZM166.33,190.64h5.01c1.75,0,3.08-.41,3.84-1.19.49-.5.73-1.16.71-1.92h0c-.03-2.09-1.85-3.49-4.55-3.49h-5.01v6.6Z"/>
  </g>
  <g>
    <path class="st1" d="M195.6,197.27h-10.87v-5.38h10.34c.39,0,.74-.15.97-.42.2-.24.32-.55.32-.89,0-.65-.45-1.34-1.29-1.34h-10.34v-5.61h10.87c.87,0,1.34-.7,1.34-1.35,0-.34-.12-.65-.33-.89-.17-.19-.48-.41-.98-.41h-12.06c-.97,0-1.73.72-1.73,1.64v15.69c0,.95.74,1.66,1.73,1.66h12.02c.53,0,.86-.22,1.03-.4.23-.24.35-.56.35-.9,0-.69-.52-1.4-1.38-1.4"/>
    <path class="st1" d="M195.6,200.32h-12.02c-1.19,0-2.08-.86-2.08-2.01v-15.69c0-1.11.91-1.99,2.08-1.99h12.06c.63,0,1.02.29,1.24.53.27.3.42.7.42,1.12,0,.82-.59,1.7-1.69,1.7h-10.53v4.91h9.99c1.06,0,1.64.87,1.64,1.69,0,.42-.14.82-.4,1.11-.3.35-.74.54-1.23.54h-9.99v4.68h10.53c1.08,0,1.73.89,1.73,1.75,0,.44-.16.84-.45,1.14-.22.23-.63.51-1.28.51ZM183.57,181.33c-.77,0-1.38.57-1.38,1.29v15.69c0,.75.59,1.31,1.38,1.31h12.02c.41,0,.65-.16.78-.3.16-.17.25-.4.25-.66,0-.52-.39-1.05-1.03-1.05h-10.87c-.19,0-.35-.16-.35-.35v-5.38c0-.19.16-.35.35-.35h10.34c.29,0,.54-.11.71-.3.15-.17.23-.41.23-.66,0-.4-.25-.99-.94-.99h-10.34c-.19,0-.35-.16-.35-.35v-5.61c0-.19.16-.35.35-.35h10.87c.73,0,.99-.6.99-1,0-.25-.08-.48-.24-.65-.18-.2-.42-.3-.72-.3h-12.06Z"/>
  </g>
  <g>
    <path class="st1" d="M214.52,180.75c-.74,0-1.52.47-1.52,1.33v10.14s.2,2.93.2,2.93l-10.16-13.59c-.47-.68-1.27-.99-2-.77-.66.21-1.07.82-1.07,1.6v16.37c0,.97.75,1.47,1.49,1.47s1.5-.51,1.5-1.47v-10.11l-.15-2.58,9.84,13.19c.41.68,1.31,1,2.15.77.74-.2,1.19-.8,1.19-1.55v-16.41c0-.87-.74-1.33-1.48-1.33"/>
    <path class="st1" d="M201.46,200.59c-.89,0-1.84-.64-1.84-1.82v-16.37c0-.94.5-1.68,1.32-1.93.87-.27,1.83.09,2.39.91l9.44,12.63-.12-1.76v-10.17c0-1.09.96-1.68,1.86-1.68s1.83.59,1.83,1.68v16.41c0,.9-.57,1.64-1.45,1.89-.98.27-2.06-.12-2.54-.93l-9.13-12.23.08,1.42v10.13c0,1.18-.95,1.82-1.85,1.82ZM201.52,181.07c-.13,0-.25.02-.37.06-.52.16-.83.63-.83,1.26v16.37c0,.77.59,1.12,1.14,1.12s1.15-.35,1.15-1.12v-10.11l-.15-2.56c0-.15.08-.29.23-.35.14-.05.31,0,.4.12l9.84,13.19c.35.58,1.08.83,1.78.64.59-.16.94-.62.94-1.21v-16.41c0-1.38-2.3-1.25-2.3,0v10.14s.19,2.91.19,2.91c.01.15-.08.3-.23.35-.15.05-.31,0-.4-.12l-10.16-13.59c-.31-.45-.77-.7-1.24-.7Z"/>
  </g>
  <g>
    <path class="st1" d="M229.81,180.73c-1.13-.13-2.13-.14-3.14,0-4.67.74-7.92,4.62-7.92,9.44,0,5.96,3.98,10.12,9.67,10.12s9.56-4.35,9.56-10.12c0-4.74-3.43-8.71-8.16-9.44M235.04,190.25c0,4.27-2.72,7.25-6.62,7.25s-6.71-2.98-6.71-7.25c0-3.67,2.06-6.27,5.37-6.79.38-.05.77-.08,1.16-.08s.79.03,1.2.08c3.3.53,5.6,3.32,5.6,6.79"/>
    <path class="st1" d="M228.41,200.64c-5.9,0-10.02-4.31-10.02-10.47,0-5,3.38-9.02,8.22-9.78,1.04-.14,2.07-.14,3.23,0,0,0,0,0,.01,0,4.9.76,8.46,4.88,8.46,9.79,0,5.97-4.26,10.47-9.91,10.47ZM228.2,180.98c-.5,0-.99.03-1.48.1-4.49.71-7.62,4.45-7.62,9.09,0,5.75,3.83,9.77,9.32,9.77s9.21-4.2,9.21-9.77c0-4.56-3.3-8.39-7.86-9.1-.55-.07-1.07-.1-1.57-.1ZM228.41,197.85c-4.15,0-7.05-3.12-7.05-7.6,0-3.85,2.17-6.58,5.66-7.13.79-.11,1.63-.11,2.46,0,3.48.56,5.9,3.5,5.9,7.14,0,4.47-2.87,7.6-6.97,7.6ZM228.24,183.73c-.38,0-.75.03-1.11.08-3.13.49-5.07,2.96-5.07,6.44,0,4.06,2.61,6.9,6.36,6.9s6.28-2.84,6.28-6.9c0-3.29-2.18-5.94-5.31-6.45-.37-.05-.76-.08-1.14-.08Z"/>
  </g>
  <path class="st1" d="M128.12,119.71l-12.17-11.39c-.3-.28-.1-.79.31-.79h23.24s.02,0,.03,0c6.31-.02,11.42-4.95,11.41-11.01-.01-6.04-5.14-10.95-11.43-10.95h0s-33.07.01-33.07.01c-.76,0-1.38.62-1.38,1.38v41.39c0,.76.62,1.38,1.38,1.38h3.6c.76,0,1.38-.62,1.38-1.38v-14.53c0-.4.47-.6.77-.33l14.02,13.11c.84.79,2.12.86,3.05.17l14.45-10.77v12.35c0,.76.62,1.38,1.38,1.38h3.6c.76,0,1.38-.62,1.38-1.38v-18.78c0-.76-.61-1.38-1.37-1.38l-4.18-.05c-.59,0-1.16.18-1.63.53l-14.77,11.03ZM111.42,93.35c0-.76.62-1.38,1.38-1.38h26.71s0,0,0,0c2.78,0,5.05,2.05,5.05,4.58,0,2.54-2.26,4.6-5.04,4.61,0,0,0,0-.01,0h0s-26.71.01-26.71.01c-.76,0-1.38-.62-1.38-1.38v-6.44Z"/>
</svg>