<?xml version="1.0" encoding="UTF-8"?>
<svg id="Capa_1" xmlns="http://www.w3.org/2000/svg" version="1.1" viewBox="0 0 256 256">
  <!-- Generator: Adobe Illustrator 29.2.1, SVG Export Plug-In . SVG Version: 2.1.0 Build 116)  -->
  <defs>
    <style>
      .st0 {
        fill: #ffda0f;
      }

      .st1 {
        fill: #00004c;
      }
    </style>
  </defs>
  <g>
    <path class="st0" d="M160.16,77.89c-.84-2.32-1.8-4.66-2.88-7-1.75-3.8-3.82-7.62-6.2-11.45-1.24-1.98-2.55-3.96-3.93-5.95-4.44-6.32-9.73-12.65-15.81-18.93-.39-.38-.76-.77-1.14-1.16l-2.64-2.66-2.63,2.66c-.38.39-.76.78-1.14,1.16-24.08,24.8-35.6,50.69-32.49,73,2.43,17.46,13.38,32.06,32.49,43.38.64.38,1.3.76,1.97,1.13l1.81,1.02,1.82-1.02c.66-.38,1.31-.75,1.96-1.13,19.12-11.33,30.04-25.92,32.49-43.38,1.31-9.38.03-19.39-3.67-29.68h-.01ZM123.85,76.79v65.38s-.03-.03-.06-.05c-14.7-9.71-23.12-21.66-25.08-35.59-2.56-18.3,6.3-39.7,25.08-60.94.02-.02.03-.05.06-.07v31.27ZM131.28,45.52s.03.05.06.07c3.91,4.43,7.39,8.88,10.42,13.28l-10.48,10.49v-23.84ZM131.28,79.25l14.35-14.35c2.35,3.92,4.34,7.82,5.98,11.66l-20.34,20.33v-17.65h.01ZM131.34,142.12s-.03.02-.06.05v-7.87l24.55-24.57c-2.72,12.56-10.94,23.43-24.5,32.38h0ZM131.28,124.41v-17.64l22.96-22.96c1.57,5.16,2.44,10.2,2.57,15.06l-25.53,25.54Z"/>
    <path class="st0" d="M127.57,153.44c-.06,0-.11-.01-.17-.05l-1.81-1.02c-.67-.38-1.32-.75-1.97-1.14-19.22-11.39-30.2-26.07-32.65-43.63-3.13-22.39,8.45-48.43,32.58-73.29.38-.39.76-.77,1.14-1.16l2.64-2.66c.13-.13.35-.13.48,0l3.14,3.17c.2.22.42.43.64.65,6.07,6.26,11.4,12.64,15.85,18.97,1.42,2.03,2.74,4.05,3.94,5.97,2.38,3.84,4.47,7.7,6.22,11.48,1.02,2.23,1.99,4.59,2.89,7.04h0c3.76,10.41,5,20.45,3.69,29.84-2.47,17.57-13.45,32.25-32.65,43.63l-.28.17c-.56.32-1.11.65-1.67.97l-1.82,1.02s-.1.05-.17.05h-.01ZM127.57,31.22l-2.4,2.42c-.39.39-.77.77-1.14,1.16-23.99,24.71-35.49,50.54-32.4,72.73,2.42,17.35,13.29,31.86,32.33,43.14.64.38,1.28.76,1.96,1.13l1.65.93,1.66-.93c.56-.32,1.11-.64,1.66-.95l.28-.17c19.02-11.27,29.89-25.78,32.32-43.14,1.3-9.28.07-19.21-3.66-29.52-.89-2.42-1.85-4.77-2.86-6.98-1.73-3.76-3.81-7.59-6.17-11.4-1.19-1.91-2.51-3.91-3.92-5.93-4.43-6.3-9.74-12.65-15.78-18.88-.22-.2-.42-.43-.64-.65l-2.9-2.93h.01ZM123.85,142.5c-.07,0-.14-.02-.2-.07-14.82-9.79-23.3-21.84-25.26-35.85-2.55-18.23,6.39-39.97,25.16-61.21.09-.09.27-.17.4-.11.13.06.24.14.24.27v96.64c0,.13-.07.24-.18.3-.05.02-.1.03-.15.03h0ZM123.52,46.4c-18.27,20.88-26.96,42.21-24.46,60.08,1.91,13.66,10.14,25.45,24.46,35.05V46.4ZM131.28,142.48s-.09,0-.14-.03c-.11-.06-.2-.16-.2-.3v-7.86c0-.09.03-.17.1-.24l24.55-24.57c.1-.1.27-.14.4-.06.14.07.2.22.17.36-2.74,12.63-11.03,23.6-24.63,32.59l-.16-.24.15.24c-.07.05-.15.08-.23.08h-.01ZM131.37,142.17l.17.23-.17-.23ZM131.34,142.12h0ZM131.61,134.44v7.08c12.78-8.56,20.72-18.88,23.62-30.73l-23.62,23.63h0ZM131.28,124.75s-.09,0-.13-.02c-.13-.06-.2-.17-.2-.31v-17.64c0-.09.03-.17.1-.24l22.96-22.96c.08-.08.2-.11.32-.09.11.03.2.11.24.23,1.59,5.24,2.46,10.33,2.58,15.15,0,.09-.03.18-.1.24l-25.53,25.54c-.07.07-.15.1-.24.1h0ZM131.61,106.9v16.7l24.86-24.86c-.14-4.55-.93-9.36-2.39-14.3l-22.46,22.46h-.01ZM131.28,97.23s-.09,0-.13-.02c-.13-.06-.2-.17-.2-.31v-17.65c0-.09.03-.17.1-.24l14.35-14.35c.07-.07.16-.13.28-.09.1.01.19.07.25.16,2.33,3.88,4.35,7.82,6,11.71.06.13.02.27-.07.38l-20.34,20.34c-.07.07-.15.1-.24.1v-.02ZM131.61,79.38v16.7l19.6-19.6c-1.57-3.67-3.47-7.39-5.65-11.05,0,0-13.95,13.95-13.95,13.95ZM131.28,69.69s-.09,0-.13-.02c-.13-.06-.2-.17-.2-.31v-23.83c0-.14.08-.26.2-.31.13-.06.27-.02.36.07,0,0,.05.05.05.06,3.88,4.39,7.39,8.87,10.47,13.33.09.14.08.32-.03.43l-10.49,10.48c-.07.07-.15.1-.24.1h.01ZM131.61,46.42v22.12l9.72-9.71c-2.89-4.17-6.15-8.34-9.72-12.41Z"/>
  </g>
  <g>
    <g>
      <path class="st1" d="M27.13,191.17l-2.91,5.67c-.64,1.33-3.01.4-2.36-1.03l10.83-21.34c.2-.47.72-.68,1.18-.68s.9.22,1.15.68l10.79,21.22c.94,1.55-1.72,2.44-2.41,1.05l-2.8-5.57h-13.48.01ZM33.87,177.62l-5.66,11.3h11.3l-5.63-11.3h-.01Z"/>
      <path class="st1" d="M23.17,197.98c-.31,0-.61-.07-.89-.19-.9-.42-1.26-1.32-.88-2.17l10.83-21.36c.25-.57.89-.95,1.63-.95.68,0,1.26.34,1.59.94l10.79,21.23c.32.51.34,1.08.06,1.57-.33.56-1.05.92-1.78.89-.7-.02-1.27-.38-1.57-.97l-2.65-5.29h-12.87l-2.77,5.4c-.31.64-.9.91-1.5.91h.01ZM33.87,174.28c-.27,0-.61.13-.73.39l-10.84,21.36c-.23.51.25.78.4.85.31.15.85.19,1.08-.25l3.05-5.95h14.08l2.93,5.84c.17.35.52.41.72.42.39.01.75-.16.9-.4.03-.06.14-.24-.07-.59l-10.8-21.26c-.19-.36-.53-.42-.72-.42h0ZM40.31,189.42h-12.9l6.47-12.9,6.43,12.9ZM29.01,188.43h9.7l-4.83-9.7-4.87,9.7Z"/>
    </g>
    <g>
      <path class="st1" d="M53.94,187.98l-9.06-12.02c-1.08-1.43,1.3-2.75,2.25-1.33l8.11,11.08,8.21-11.12c.9-1.38,3.13-.22,2.15,1.28l-9,12.08v8.04c0,.9-.72,1.33-1.32,1.33-.73,0-1.34-.43-1.34-1.33v-8.04h.01Z"/>
      <path class="st1" d="M55.28,197.84c-1.09,0-1.83-.73-1.83-1.82v-7.87l-8.97-11.88c-.39-.52-.48-1.11-.25-1.65.26-.59.89-1.01,1.59-1.08.69-.06,1.32.24,1.72.83l7.7,10.53,7.81-10.57c.61-.94,1.77-1,2.52-.51.66.43,1.08,1.35.43,2.35l-8.92,11.98v7.88c0,1.14-.92,1.82-1.82,1.82h.02ZM46,174.53h-.09c-.34.03-.66.23-.77.49-.09.2-.05.42.14.65l9.16,12.14v8.21c0,.73.52.83.84.83s.83-.23.83-.83v-8.2l9.09-12.22c.35-.53,0-.85-.16-.95-.28-.19-.83-.27-1.17.24l-8.63,11.67-8.5-11.63c-.23-.33-.51-.41-.73-.41h-.01Z"/>
    </g>
    <g>
      <path class="st1" d="M69.75,191.17l-2.9,5.67c-.65,1.33-3.01.4-2.36-1.03l10.82-21.34c.23-.47.73-.68,1.19-.68s.9.22,1.15.68l10.79,21.22c.93,1.55-1.72,2.44-2.4,1.05l-2.8-5.57h-13.49ZM76.49,177.62l-5.67,11.3h11.3s-5.63-11.3-5.63-11.3Z"/>
      <path class="st1" d="M65.78,197.98c-.31,0-.61-.07-.89-.19-.91-.42-1.26-1.32-.88-2.17l10.83-21.36c.28-.59.91-.95,1.63-.95s1.26.34,1.58.95l10.8,21.22c.32.52.34,1.09.06,1.58-.33.56-1.03.92-1.8.89-.69-.02-1.26-.38-1.55-.97l-2.65-5.29h-12.88l-2.76,5.4c-.31.64-.9.91-1.5.91v-.02ZM76.49,174.28c-.26,0-.6.1-.74.41l-10.82,21.35c-.23.51.25.78.4.85.31.15.85.2,1.08-.25l3.05-5.95h14.1l2.93,5.84c.17.34.51.41.7.42.38.01.75-.16.9-.4.03-.06.15-.24-.07-.59l-10.81-21.26c-.18-.34-.48-.42-.7-.42h-.01ZM82.93,189.42h-12.9l6.47-12.9,6.42,12.9h.01ZM71.63,188.43h9.7l-4.83-9.7-4.87,9.7Z"/>
    </g>
    <g>
      <path class="st1" d="M111.13,193.23c-2.13,2.8-5.66,4.33-9.14,4.3-6.17-.03-11.48-5.15-11.33-11.94,0-5.46,4.08-10.44,9.57-11.48.55-.07,1.22-.1,1.86-.1,3.13,0,6.46,1.07,8.42,3.36,1.08,1.25-.75,2.98-1.86,1.69-2.02-2.33-5.34-3.16-8.04-2.48-3.94.93-7.39,4.41-7.39,9.11.07,5.06,4.16,9.29,8.79,9.4,2.66.03,5.41-1.11,6.99-3.23v-4.77h-6.46c-1.68,0-1.5-2.36,0-2.36h7.6c1.05,0,1.36.53,1.36,1.33v5.99c0,.39-.07.85-.4,1.18h.01Z"/>
      <path class="st1" d="M102.1,198.01h-.13c-3.17-.02-6.15-1.3-8.39-3.59-2.28-2.34-3.5-5.49-3.43-8.84,0-5.73,4.29-10.88,9.98-11.96.58-.07,1.28-.11,1.96-.11,3.61,0,6.9,1.32,8.8,3.55.76.88.47,1.96-.19,2.52-.64.56-1.67.66-2.41-.19-1.77-2.05-4.88-3-7.54-2.32-3.39.8-7.01,3.84-7.01,8.62.07,4.72,3.87,8.8,8.3,8.9,2.58.02,5.05-1.07,6.48-2.9v-4.1h-5.96c-.66,0-1.05-.27-1.26-.51-.27-.3-.42-.69-.42-1.11,0-.84.59-1.73,1.69-1.73h7.6c1.19,0,1.86.65,1.86,1.82v5.99c0,.64-.17,1.15-.51,1.5-2.11,2.76-5.7,4.47-9.4,4.47h-.02ZM102.09,174.5c-.64,0-1.3.03-1.81.1-5.2.99-9.14,5.72-9.14,10.99-.07,3.1,1.06,5.99,3.15,8.14,2.06,2.11,4.79,3.29,7.7,3.3,3.41.03,6.8-1.53,8.74-4.1l.05-.05c.17-.17.25-.45.25-.83v-5.99c0-.56-.14-.83-.86-.83h-7.6c-.56,0-.7.48-.7.74,0,.17.06.33.16.44.11.13.31.19.55.19h6.95v5.42l-.1.14c-1.6,2.16-4.43,3.5-7.39,3.43-4.96-.11-9.2-4.65-9.28-9.89,0-5.33,4.02-8.71,7.76-9.59,3.06-.77,6.48.28,8.53,2.64.44.51.89.19,1.01.09.23-.19.5-.66.09-1.14-1.72-2-4.73-3.19-8.05-3.19h.01Z"/>
    </g>
    <g>
      <path class="st1" d="M161.13,176.08c0-1.76,2.67-1.76,2.67-.03v11.79c0,6.89-5.34,10.37-10.58,10.37s-10.57-3.47-10.57-10.37v-11.79c0-1.58,2.69-1.58,2.69.03v11.75c0,10.37,15.79,10.37,15.79,0v-11.75Z"/>
      <path class="st1" d="M153.23,198.69c-5.5,0-11.07-3.73-11.07-10.86v-11.79c0-2.22,3.68-2.19,3.68.03v11.75c0,5,3.83,7.28,7.4,7.28s7.4-2.27,7.4-7.28v-11.75c0-2.38,3.66-2.4,3.66-.03v11.79c0,7.13-5.57,10.86-11.07,10.86h0ZM143.99,175.35c-.09,0-.84.02-.84.68v11.79c0,4.75,3.15,9.87,10.08,9.87,4.85,0,10.08-3.09,10.08-9.87v-11.79c0-.59-.44-.8-.83-.8s-.85.22-.85.83v11.75c0,5.68-4.35,8.26-8.39,8.26s-8.39-2.59-8.39-8.26v-11.75c0-.7-.77-.73-.86-.73h0Z"/>
    </g>
    <g>
      <path class="st1" d="M121.11,191.17l-2.9,5.67c-.66,1.33-3.01.4-2.36-1.03l10.82-21.34c.22-.47.73-.68,1.19-.68s.89.22,1.15.68l10.79,21.22c.93,1.55-1.73,2.44-2.4,1.05l-2.8-5.57h-13.49ZM127.85,177.62l-5.67,11.3h11.29l-5.63-11.3h.01Z"/>
      <path class="st1" d="M117.14,197.98c-.31,0-.61-.07-.89-.2-.9-.42-1.25-1.32-.86-2.17l10.83-21.36c.26-.58.91-.95,1.63-.95s1.25.34,1.58.94l10.8,21.23c.32.52.34,1.09.06,1.58-.33.56-1.03.91-1.8.89-.69-.03-1.26-.39-1.55-.97l-2.66-5.29h-12.88l-2.76,5.4c-.32.64-.91.91-1.5.91h0ZM127.85,174.28c-.26,0-.6.1-.74.4l-10.83,21.36c-.23.5.24.78.4.85.31.15.85.2,1.08-.26l3.05-5.95h14.1l2.93,5.83c.17.34.51.41.69.42.38.02.76-.16.91-.4.03-.06.15-.24-.07-.59l-10.81-21.26c-.18-.34-.49-.42-.7-.42h0ZM134.27,189.42h-12.89l6.47-12.9,6.42,12.9ZM122.98,188.43h9.69l-4.82-9.7s-4.87,9.7-4.87,9.7Z"/>
    </g>
    <g>
      <path class="st1" d="M171.45,189.2v6.96c0,1.66-2.61,1.66-2.61.05v-20.59c0-.75.53-1.25,1.33-1.25h8.49c6.21,0,9.37,3.51,9.37,7.71,0,3.61-1.98,6.24-6.38,6.99l5.81,6.27c1.36,1.35-.6,2.93-1.78,1.72l-7.25-7.87h-6.97ZM171.45,186.94h7.24c4.71,0,6.74-2.18,6.66-4.88-.02-2.94-2.51-5.31-6.66-5.31h-7.24v10.19h0Z"/>
      <path class="st1" d="M186.62,197.99c-.49,0-.95-.2-1.32-.58l-7.12-7.71h-6.24v6.46c0,2.27-3.61,2.3-3.61.05v-20.59c0-1.03.75-1.75,1.82-1.75h8.49c4.91,0,9.86,2.53,9.86,8.21,0,3.8-2.09,6.37-5.92,7.3l5.21,5.64c.68.68.64,1.36.55,1.72-.16.59-.64,1.05-1.26,1.22-.15.05-.31.06-.45.06h.01ZM170.95,188.7h7.66l7.4,8.03c.31.32.65.3.82.25.27-.07.49-.27.56-.51.08-.31-.11-.59-.3-.77l-6.43-6.97.9-.15c3.9-.67,5.97-2.91,5.97-6.5,0-4.38-3.48-7.22-8.87-7.22h-8.49c-.52,0-.83.28-.83.76v20.59c0,.69.72.7.8.7s.83-.02.83-.75v-7.46h-.01ZM178.69,187.44h-7.74v-11.17h7.74c4.18,0,7.13,2.39,7.16,5.8.03,1.34-.41,2.53-1.3,3.46-1.23,1.26-3.25,1.93-5.85,1.93h-.01ZM171.93,186.45h6.74c2.33,0,4.12-.57,5.15-1.63.69-.72,1.05-1.66,1.02-2.74-.02-2.89-2.5-4.83-6.17-4.83h-6.74v9.2Z"/>
    </g>
    <g>
      <path class="st1" d="M194.96,194.83h14.16c1.5,0,1.72,2.38,0,2.38h-15.11c-1,0-1.65-.72-1.65-1.58v-19.68c0-.83.65-1.55,1.65-1.55h15.13c1.55,0,1.48,2.3-.03,2.3h-14.16v8.07h13.47c1.44,0,1.51,2.3,0,2.3h-13.47v7.78h.01Z"/>
      <path class="st1" d="M209.13,197.7h-15.11c-1.22,0-2.15-.9-2.15-2.08v-19.68c0-1.16.92-2.05,2.15-2.05h15.13c.63,0,1.01.28,1.22.51.26.3.41.68.41,1.1,0,.81-.58,1.67-1.66,1.67h-13.66v7.08h12.98c1.05,0,1.6.85,1.6,1.66s-.55,1.63-1.6,1.63h-12.98v6.79h13.66c1.07,0,1.71.89,1.71,1.74,0,.43-.15.83-.43,1.11-.22.23-.61.5-1.27.5h.01ZM194.02,174.89c-.76,0-1.15.53-1.15,1.05v19.68c0,.64.48,1.09,1.15,1.09h15.11c.25,0,.43-.07.56-.19.1-.1.16-.26.16-.43,0-.31-.19-.75-.72-.75h-14.65v-8.76h13.97c.57,0,.61-.49.61-.64,0-.25-.13-.67-.61-.67h-13.97v-9.06h14.65c.52,0,.66-.43.66-.68,0-.15-.05-.63-.64-.63h-15.13Z"/>
    </g>
    <g>
      <path class="st1" d="M216,191.54c.93,2.98,4.92,3.61,7.8,3.61,3.05,0,7.78-.92,7.78-4.55,0-3.13-3.77-3.36-7.71-3.69-4.96-.4-10.27-.86-10.27-6.21,0-4.73,5.45-6.84,9.83-6.84,3.76,0,8.45.91,9.97,4.99.53,1.43-1.9,2.07-2.43.86-1.08-2.73-4.91-3.19-7.5-3.19-2.4,0-7.06.97-7.06,4.23s3.59,3.44,7.74,3.76c4.9.43,10.19.68,10.19,6.07s-6.14,7.17-10.54,7.17c-3.67,0-9.26-1.25-10.45-5.57-.43-1.57,2.36-2.1,2.65-.64h0Z"/>
      <path class="st1" d="M223.79,198.23c-4.29,0-9.72-1.56-10.92-5.93-.16-.58,0-1.15.41-1.56.53-.51,1.41-.7,2.13-.48.56.18.94.59,1.06,1.14.94,2.93,5.42,3.25,7.32,3.25.75,0,7.28-.11,7.28-4.06,0-2.43-2.66-2.82-7.04-3.18l-.22-.02c-4.77-.38-10.72-.85-10.72-6.7,0-3.65,3.55-7.34,10.32-7.34,3.87,0,8.8.92,10.44,5.31.32.83-.07,1.64-.95,2-.86.35-1.99.16-2.4-.77-.94-2.4-4.35-2.9-7.05-2.9-1.71,0-6.56.68-6.56,3.74,0,2.52,2.75,2.92,7.29,3.27l.57.05c4.72.41,10.07.89,10.07,6.51,0,5.3-5.54,7.66-11.03,7.66h.01ZM214.79,191.17c-.31,0-.63.11-.82.3-.17.16-.22.34-.15.58,1.06,3.84,6.02,5.21,9.97,5.21,4.63,0,10.04-1.75,10.04-6.67s-4.46-5.12-9.16-5.52l-.57-.05c-4.02-.31-8.2-.64-8.2-4.25s4.51-4.73,7.56-4.73,6.82.61,7.97,3.51c.17.38.75.38,1.11.24.27-.11.56-.33.4-.74-1.43-3.85-5.96-4.67-9.5-4.67s-9.33,1.73-9.33,6.35,4.06,5.25,9.8,5.71l.22.02c3.91.32,7.95.65,7.95,4.16,0,3.73-4.46,5.05-8.28,5.05-2.63,0-7.18-.51-8.26-3.97v-.06c-.03-.08-.07-.31-.41-.41-.1-.03-.22-.05-.33-.05h0Z"/>
    </g>
    <path class="st1" d="M36.02,208.43c.63-.98,1.86-.66,1.86.48v15.62c0,1.31-1.98,1.31-1.98,0v-12.35l-5.54,8.65c-.43.78-1.46.78-1.88,0l-5.52-8.62v12.31c0,1.31-1.99,1.31-1.99,0v-15.62c0-1.17,1.31-1.46,1.84-.48l6.63,10.3,6.56-10.3h.01Z"/>
    <path class="st1" d="M44.66,223.48h10.72c1.14,0,1.3,1.78,0,1.78h-11.42c-.76,0-1.25-.55-1.25-1.19v-14.89c0-.63.49-1.17,1.25-1.17h11.45c1.17,0,1.11,1.73-.02,1.73h-10.72v6.1h10.2c1.09,0,1.14,1.74,0,1.74h-10.2v5.89h0Z"/>
    <path class="st1" d="M60.86,225.26c-.68,0-1.25-.55-1.25-1.17v-14.95c0-.63.57-1.13,1.25-1.13h5.91c5.4,0,8.08,4.31,8.08,8.62s-2.68,8.63-8.08,8.63h-5.91ZM61.57,223.5h5.22c4.08,0,6.1-3.44,6.1-6.87s-2.02-6.89-6.1-6.89h-5.22v13.75h0Z"/>
    <path class="st1" d="M78.26,208.37c0-1.35,2.03-1.33,2.03,0v16.22c0,1.25-2.03,1.3-2.03,0v-16.22Z"/>
    <path class="st1" d="M83.36,216.34c0-4.26,2.89-7.89,7.18-8.57,1.01-.14,1.93-.11,2.88,0,4.17.66,7.41,4.12,7.41,8.57,0,5.65-4.07,9.23-8.68,9.23-4.89,0-8.8-3.47-8.8-9.23h.01ZM85.4,216.42c0,4.44,2.93,7.28,6.75,7.28s6.66-2.72,6.66-7.28c0-3.49-2.31-6.29-5.64-6.82-.82-.11-1.6-.11-2.35,0-3.29.51-5.42,3.14-5.42,6.82Z"/>
    <path class="st1" d="M106.05,220.7l-2.19,4.29c-.49,1-2.28.3-1.78-.78l8.18-16.14c.15-.35.55-.51.89-.51s.69.16.88.51l8.16,16.05c.69,1.17-1.3,1.85-1.82.8l-2.1-4.21s-10.21,0-10.21,0ZM111.14,210.45l-4.29,8.55h8.55l-4.26-8.55Z"/>
    <path class="st1" d="M138.07,208.43c.63-.98,1.86-.66,1.86.48v15.62c0,1.31-1.98,1.31-1.98,0v-12.35l-5.52,8.65c-.43.78-1.47.78-1.88,0l-5.54-8.62v12.31c0,1.31-1.97,1.31-1.97,0v-15.62c0-1.17,1.3-1.46,1.84-.48l6.62,10.3,6.56-10.3Z"/>
    <path class="st1" d="M152.84,225.26h-7.06c-.55,0-1-.43-1-.98v-15.29c0-.55.45-.98,1-.98h6.45c2.51,0,6.42.83,6.42,4.69,0,1.41-.68,2.65-2.09,3.22,1.99.63,3.34,2.01,3.34,4.21,0,4.04-3.63,5.13-7.05,5.13h-.01ZM146.75,209.77v5.54h5.54c2.33,0,4.37-.63,4.37-2.6,0-2.34-2.77-2.93-4.44-2.93h-5.46,0ZM146.75,223.5h6.07c2.39,0,5.02-.63,5.02-3.36,0-2.15-1.85-3.06-4.22-3.06h-6.89v6.42h.01Z"/>
    <path class="st1" d="M163.22,208.37c0-1.35,2.03-1.33,2.03,0v16.22c0,1.25-2.03,1.3-2.03,0v-16.22Z"/>
    <path class="st1" d="M171.31,223.48h10.72c1.15,0,1.3,1.78,0,1.78h-11.41c-.76,0-1.25-.55-1.25-1.19v-14.89c0-.63.49-1.17,1.25-1.17h11.44c1.17,0,1.13,1.73-.02,1.73h-10.72v6.1h10.2c1.09,0,1.15,1.74,0,1.74h-10.2v5.89h0Z"/>
    <path class="st1" d="M198.93,208.67c0-1.15,2.06-1.19,2.06,0v15.57c0,1.35-1.86,1.49-2.43.55l-10.14-13.6.22,3.75v9.57c0,1.34-2.07,1.35-2.07,0v-15.54c0-1.35,1.52-1.58,2.19-.57l10.45,13.96-.27-4.08v-9.61h0Z"/>
    <path class="st1" d="M218.09,207.98c1.33,0,1.33,1.86,0,1.86h-6.05c0,4.89.03,9.84.03,14.73,0,.68-.57,1.01-1.02,1.01s-.99-.33-.99-1.01v-14.73h-6.02c-1.27,0-1.27-1.86,0-1.86h14.05Z"/>
    <path class="st1" d="M223.38,223.48h10.72c1.13,0,1.31,1.78,0,1.78h-11.42c-.76,0-1.24-.55-1.24-1.19v-14.89c0-.63.48-1.17,1.24-1.17h11.45c1.17,0,1.1,1.73-.02,1.73h-10.72v6.1h10.21c1.08,0,1.13,1.74,0,1.74h-10.21v5.89h0Z"/>
  </g>
</svg>