<?xml version="1.0" encoding="UTF-8"?>
<svg id="Capa_1" xmlns="http://www.w3.org/2000/svg" version="1.1" viewBox="0 0 256 256">
  <!-- Generator: Adobe Illustrator 29.2.1, SVG Export Plug-In . SVG Version: 2.1.0 Build 116)  -->
  <defs>
    <style>
      .st0 {
        fill: #ffda0a;
      }

      .st1 {
        fill: #1d2040;
      }
    </style>
  </defs>
  <g>
    <path class="st1" d="M45.68,105.56c0-5.43-4.18-8.94-10.65-8.94h-9.31c-1.09,0-1.86.74-1.86,1.79v22.76c0,2.3,3.67,2.28,3.67-.04v-7.28h7.04l7.83,8.55c.38.4.86.61,1.36.61.15,0,.3-.02.45-.06.63-.16,1.12-.63,1.29-1.23.1-.36.15-1.06-.56-1.79l-5.87-6.4c4.27-.98,6.61-3.79,6.61-7.98ZM41.97,105.57c.03,1.22-.37,2.3-1.16,3.12-1.17,1.21-3.16,1.85-5.75,1.85h-7.53v-10.45h7.53c4.09,0,6.87,2.2,6.91,5.48Z"/>
    <path class="st1" d="M76.77,119.59h-15.12v-7.79h14.36c.63,0,1.01-.29,1.22-.53.26-.3.4-.7.4-1.13,0-.82-.57-1.7-1.62-1.7h-14.36v-8.1h15.12c1.09,0,1.67-.88,1.67-1.7,0-.43-.15-.82-.41-1.12-.21-.24-.59-.52-1.23-.52h-16.58c-1.26,0-2.22.9-2.22,2.1v21.76c0,1.23.95,2.15,2.22,2.15h16.54c.67,0,1.08-.28,1.3-.51.28-.3.43-.7.43-1.14,0-.86-.61-1.77-1.73-1.77Z"/>
    <path class="st1" d="M108.06,119.59h-14.29v-21.19c0-2.38-3.71-2.38-3.71,0v22.74c0,1.22.66,1.87,1.9,1.87h16.11c1.25,0,1.9-.86,1.9-1.71s-.65-1.71-1.9-1.71Z"/>
    <path class="st1" d="M135.1,96.97c-.34-.62-.91-.97-1.6-.97-.75,0-1.4.38-1.66.98l-11.87,23.61c-.39.87-.02,1.79.89,2.22.28.13.59.2.91.2.61,0,1.21-.27,1.52-.92l3.07-6.04h14.28l2.95,5.91c.29.61.86.97,1.58,1.01.77.04,1.5-.33,1.84-.9.29-.49.26-1.07-.06-1.61l-11.83-23.47ZM139.01,112.74h-11.07l5.56-11.16,5.51,11.16Z"/>
    <path class="st1" d="M170.47,109.42l8.87-10.19c.44-.47.58-1.06.4-1.62-.2-.63-.79-1.15-1.47-1.28-.64-.13-1.25.1-1.69.62l-8.42,9.95-8.45-9.99c-.77-.89-1.91-.73-2.58-.13-.63.56-.9,1.56-.19,2.37l8.84,10.27-9.11,10.52c-.82.95-.61,2.04.02,2.62.66.6,1.79.69,2.7-.29l8.77-10.16,8.67,10.19c.52.52,1.09.73,1.61.73.46,0,.88-.17,1.19-.45.58-.53.83-1.56,0-2.6l-9.16-10.54Z"/>
    <path class="st1" d="M192.97,95.63c-.93,0-1.87.65-1.87,1.88v23.7c0,1.18.93,1.8,1.85,1.8s1.9-.62,1.9-1.8v-23.7c0-1.23-.95-1.88-1.89-1.88Z"/>
    <path class="st1" d="M231.83,120.45l-11.83-23.47c-.33-.61-.92-.96-1.61-.96-.75,0-1.4.39-1.66.98l-11.88,23.61c-.39.87-.03,1.78.89,2.21.28.13.6.21.91.21.61,0,1.21-.27,1.53-.92l3.06-6.04h14.28l2.95,5.91c.29.61.87.97,1.58,1,.78.03,1.5-.33,1.83-.9.29-.49.26-1.07-.06-1.61ZM223.9,112.74h-11.07l5.56-11.16,5.51,11.16Z"/>
  </g>
  <path class="st0" d="M7.05,130.65s34.54,12.81,119.42,3.73c-71.11,16.17-94.34,8.09-119.42-3.73"/>
  <path class="st0" d="M248.95,146.74s-33.42-15.54-118.75-13.29c72.16-10.42,94.68-.5,118.75,13.29"/>
  <g>
    <g>
      <g>
        <path class="st1" d="M29.29,152.44c.56,0,.56.8,0,.8h-2.55c0,2.07.01,4.18.01,6.26,0,.29-.24.43-.43.43s-.41-.14-.41-.43v-6.26h-2.54c-.54,0-.54-.8,0-.8h5.92Z"/>
        <path class="st1" d="M26.32,160.14c-.31,0-.63-.23-.63-.65v-6.03h-2.31c-.4,0-.62-.32-.62-.62,0-.16.06-.31.16-.42.11-.13.28-.2.47-.2h5.92c.42,0,.64.32.64.62s-.23.62-.64.62h-2.33c0,.96,0,1.93,0,2.91,0,1.05,0,2.09,0,3.13,0,.41-.33.65-.65.65ZM23.37,152.67c-.17,0-.18.13-.18.17s.01.17.18.17h2.76v6.48c0,.2.17.2.19.2.06,0,.21-.04.21-.2,0-1.04,0-2.08,0-3.13,0-1.05,0-2.09,0-3.13v-.22h2.77c.18,0,.2-.13.2-.17s-.01-.17-.2-.17h-5.92Z"/>
      </g>
      <g>
        <path class="st1" d="M31.78,155.88h4.2v-3.15c0-.55.83-.55.83,0v6.72c0,.56-.83.59-.83,0v-2.85h-4.2v2.85c0,.6-.82.53-.82,0v-6.72c0-.56.82-.53.82,0v3.15Z"/>
        <path class="st1" d="M36.39,160.1c-.31,0-.63-.22-.63-.65v-2.62h-3.76v2.62c0,.25-.1.4-.19.48-.33.32-1.07.13-1.07-.48v-6.72c0-.19.07-.36.2-.48.33-.3,1.07-.15,1.07.48v2.92h3.76v-2.92c0-.83,1.28-.83,1.28,0v6.72c0,.43-.33.65-.64.65ZM31.56,156.38h4.65v3.07c0,.19.13.21.19.21.03,0,.2-.01.2-.21v-6.72c0-.18-.15-.19-.2-.19s-.2.01-.2.19v3.37h-4.65v-3.37c0-.18-.18-.19-.2-.19-.05,0-.1.02-.13.04-.03.03-.05.08-.05.14v6.72c0,.16.14.2.21.2.05,0,.09-.01.12-.04.04-.03.05-.09.05-.16v-3.07Z"/>
      </g>
      <g>
        <path class="st1" d="M39.66,159.02h4.51c.48,0,.55.76,0,.76h-4.81c-.32,0-.53-.23-.53-.51v-6.33c0-.26.21-.5.53-.5h4.82c.49,0,.47.74-.01.74h-4.51v2.59h4.3c.46,0,.48.74,0,.74h-4.3v2.5Z"/>
        <path class="st1" d="M44.17,160.01h-4.81c-.43,0-.75-.31-.75-.73v-6.33c0-.41.32-.72.75-.72h4.82c.17,0,.33.07.43.19.09.11.14.25.14.4,0,.29-.21.6-.59.6h-4.29v2.15h4.07c.33,0,.57.26.57.6,0,.15-.05.29-.14.4-.11.12-.26.19-.43.19h-4.07v2.05h4.29c.38,0,.61.32.61.62,0,.15-.05.3-.15.4-.08.08-.22.18-.45.18ZM39.36,152.68c-.21,0-.31.14-.31.27v6.33c0,.14.09.28.31.28h4.81s.1,0,.13-.04c.03-.03.03-.07.03-.1,0-.06-.03-.18-.16-.18h-4.73v-2.95h4.52c.11,0,.13-.08.13-.14,0-.03,0-.15-.13-.15h-4.52v-3.04h4.73c.14,0,.15-.12.15-.16,0-.06-.02-.14-.14-.14h-4.82Z"/>
      </g>
      <g>
        <path class="st1" d="M51.96,157.62v1.86c0,.53-.82.52-.82.01v-6.64c0-.24.19-.4.42-.4h2.48c1.98,0,2.9,1.33,2.9,2.65s-.94,2.52-2.94,2.52h-2.04ZM51.96,156.87h2.04c1.52,0,2.15-.9,2.13-1.77-.01-.95-.75-1.9-2.08-1.9h-2.09v3.68Z"/>
        <path class="st1" d="M51.55,160.09c-.36,0-.63-.26-.63-.61v-6.64c0-.35.28-.63.64-.63h2.48c2.14,0,3.12,1.49,3.12,2.87,0,1.67-1.24,2.75-3.16,2.75h-1.82v1.63c0,.19-.07.35-.21.47-.11.1-.26.15-.43.15ZM51.56,152.67c-.1,0-.2.06-.2.18v6.64c0,.15.16.16.19.16.06,0,.11-.02.14-.05.03-.03.05-.07.05-.13v-2.08h2.27c1.67,0,2.72-.88,2.72-2.3,0-1.21-.83-2.43-2.68-2.43h-2.48ZM54,157.09h-2.27v-4.12h2.31c1.48,0,2.29,1.09,2.3,2.12.01.51-.17.98-.51,1.34-.29.3-.85.66-1.84.66ZM52.18,156.65h1.82c.66,0,1.19-.18,1.52-.53.26-.27.4-.63.38-1.02-.01-.84-.65-1.68-1.86-1.68h-1.87v3.23Z"/>
      </g>
      <g>
        <path class="st1" d="M59.16,159.78c-.31,0-.43-.15-.43-.43v-6.61c0-.54.85-.54.85,0v6.28h4.27c.58,0,.58.76,0,.76h-4.68Z"/>
        <path class="st1" d="M63.85,160.01h-4.68c-.42,0-.65-.24-.65-.65v-6.61c0-.82,1.29-.82,1.29,0v6.06h4.05c.43,0,.66.3.66.6,0,.16-.06.31-.18.42-.08.08-.24.18-.48.18ZM59.15,152.56s-.2.01-.2.18v6.61c0,.16.03.2.21.2h4.68c.16,0,.22-.08.22-.16s-.06-.16-.22-.16h-4.49v-6.5c0-.17-.15-.18-.2-.18Z"/>
      </g>
      <g>
        <path class="st1" d="M66.42,159.02h4.51c.48,0,.55.76,0,.76h-4.81c-.32,0-.53-.23-.53-.51v-6.33c0-.26.21-.5.53-.5h4.82c.49,0,.47.74-.01.74h-4.51v2.59h4.3c.46,0,.48.74,0,.74h-4.3v2.5Z"/>
        <path class="st1" d="M70.93,160.01h-4.81c-.43,0-.75-.31-.75-.73v-6.33c0-.41.32-.72.75-.72h4.82c.17,0,.33.07.43.19.09.11.14.25.14.4,0,.29-.21.6-.59.6h-4.29v2.15h4.08c.33,0,.57.26.57.6,0,.15-.05.29-.14.4-.11.12-.26.19-.43.19h-4.08v2.05h4.29c.38,0,.61.32.61.62,0,.15-.06.3-.15.4-.08.08-.22.18-.45.18ZM66.12,152.68c-.21,0-.3.14-.3.27v6.33c0,.14.09.28.3.28h4.81s.1,0,.13-.04c.03-.03.03-.07.03-.1,0-.06-.04-.18-.17-.18h-4.73v-2.95h4.52c.07,0,.09-.03.1-.04.02-.02.03-.06.03-.1,0-.03,0-.15-.13-.15h-4.52v-3.04h4.73c.14,0,.15-.13.15-.16,0-.06-.02-.14-.14-.14h-4.82Z"/>
      </g>
      <g>
        <path class="st1" d="M74.02,157.85l-.93,1.82c-.21.43-.96.13-.75-.33l3.45-6.86c.07-.15.23-.22.38-.22s.29.07.37.22l3.44,6.82c.3.5-.55.78-.77.33l-.89-1.79h-4.3ZM76.16,153.49l-1.81,3.63h3.6l-1.79-3.63Z"/>
        <path class="st1" d="M72.75,160.1c-.11,0-.21-.02-.31-.07-.32-.15-.45-.48-.31-.78l3.45-6.87c.09-.21.31-.34.57-.34.24,0,.45.12.56.34l3.44,6.83c.11.18.12.39.02.57-.12.2-.37.33-.63.32-.24-.01-.45-.14-.55-.35l-.83-1.66h-4.03l-.86,1.7c-.11.23-.32.33-.53.33ZM76.16,152.48c-.06,0-.15.02-.18.09l-3.45,6.86c-.04.09.03.16.1.19.05.02.2.06.26-.05l.99-1.95h4.57l.95,1.91c.04.08.11.1.17.1.08,0,.2-.04.23-.1,0-.01.03-.04-.02-.12l-3.45-6.84c-.03-.06-.09-.1-.17-.1ZM78.31,157.34h-4.31l2.16-4.35,2.15,4.35ZM74.72,156.9h2.88l-1.44-2.91-1.45,2.91Z"/>
      </g>
      <g>
        <path class="st1" d="M81.66,157.96c.3.96,1.57,1.16,2.48,1.16.97,0,2.48-.3,2.48-1.46,0-1-1.2-1.08-2.46-1.19-1.58-.13-3.27-.28-3.27-1.99,0-1.52,1.74-2.2,3.13-2.2,1.2,0,2.7.29,3.18,1.6.17.46-.61.67-.78.28-.34-.88-1.57-1.03-2.39-1.03-.77,0-2.25.31-2.25,1.36s1.14,1.11,2.47,1.21c1.57.14,3.24.22,3.24,1.95s-1.95,2.3-3.36,2.3c-1.17,0-2.95-.4-3.32-1.79-.14-.51.75-.68.85-.21Z"/>
        <path class="st1" d="M84.14,160.18c-1.39,0-3.14-.51-3.54-1.95-.06-.21,0-.42.15-.56.18-.18.49-.25.74-.17.2.06.34.21.38.41.29.9,1.68,1,2.27,1,.23,0,2.26-.03,2.26-1.24,0-.73-.83-.85-2.19-.96h-.07c-1.55-.13-3.47-.28-3.47-2.22,0-1.59,1.69-2.42,3.35-2.42,1.8,0,2.97.6,3.38,1.75.11.3-.03.6-.34.73-.3.12-.7.05-.85-.28-.31-.78-1.5-.89-2.19-.89-.53,0-2.03.21-2.03,1.14,0,.76.86.88,2.26.99h.17c1.54.15,3.28.3,3.28,2.17,0,1.75-1.8,2.53-3.58,2.53ZM81.27,157.91c-.08,0-.17.03-.22.08-.04.04-.05.07-.03.13.33,1.2,1.88,1.62,3.11,1.62.32,0,3.14-.06,3.14-2.08,0-1.36-1.14-1.56-2.87-1.71l-.17-.02c-1.31-.1-2.67-.21-2.67-1.43s1.48-1.58,2.47-1.58c1.4,0,2.29.4,2.59,1.17.03.07.17.08.27.04.13-.05.1-.13.09-.16-.44-1.2-1.86-1.46-2.97-1.46s-2.91.54-2.91,1.98,1.27,1.63,3.06,1.77h.07c1.27.11,2.59.22,2.59,1.41s-1.45,1.69-2.7,1.69c-.85,0-2.33-.17-2.69-1.32v-.02s-.03-.06-.09-.08c-.03,0-.05-.01-.08-.01Z"/>
      </g>
      <g>
        <path class="st1" d="M89.93,157.85l-.93,1.82c-.21.43-.96.13-.75-.33l3.45-6.86c.07-.15.23-.22.38-.22s.29.07.37.22l3.44,6.82c.3.5-.55.78-.77.33l-.89-1.79h-4.3ZM92.08,153.49l-1.81,3.63h3.6l-1.79-3.63Z"/>
        <path class="st1" d="M88.67,160.1c-.11,0-.21-.02-.31-.07-.32-.15-.45-.48-.31-.78l3.45-6.87c.09-.21.31-.34.57-.34.24,0,.45.12.56.34l3.44,6.83c.11.18.12.39.01.57-.12.2-.4.32-.63.31-.24-.01-.45-.14-.55-.35l-.83-1.66h-4.02l-.86,1.7c-.11.23-.32.33-.53.33ZM92.08,152.48c-.07,0-.15.03-.18.09l-3.45,6.86c-.04.09.03.16.1.19.05.02.2.06.26-.05l.99-1.95h4.57l.95,1.91c.04.08.11.1.17.1,0,0,0,0,.01,0,.1,0,.19-.05.22-.1,0-.01.03-.05-.02-.12l-3.45-6.84c-.03-.06-.09-.1-.17-.1ZM94.23,157.34h-4.31l2.16-4.35,2.15,4.35ZM90.63,156.9h2.88l-1.44-2.91-1.45,2.91Z"/>
      </g>
      <g>
        <path class="st1" d="M102.49,152.73c0-.48.87-.51.87,0v6.61c0,.58-.79.63-1.03.23l-4.27-5.77.09,1.59v4.07c0,.56-.87.58-.87,0v-6.6c0-.58.64-.67.93-.24l4.4,5.93-.11-1.74v-4.08Z"/>
        <path class="st1" d="M97.72,160.11c-.32,0-.65-.22-.65-.65v-6.6c0-.34.18-.61.47-.7.31-.1.66.04.86.33l3.95,5.32-.06-.99v-4.09c0-.34.28-.59.66-.59s.65.25.65.59v6.61c0,.33-.2.59-.52.68-.35.1-.75-.04-.92-.34l-3.82-5.16.05.85v4.08c0,.42-.34.65-.66.65ZM97.74,152.57s-.05,0-.07.01c-.1.03-.16.13-.16.27v6.6c0,.19.16.2.21.2.04,0,.22-.01.22-.2v-4.07l-.13-2.32,4.71,6.37c.09.15.3.2.44.16.13-.04.19-.12.19-.25v-6.61c0-.14-.16-.15-.21-.15,0,0-.22,0-.22.15v4.08l.16,2.48-4.85-6.54c-.08-.13-.2-.18-.29-.18Z"/>
      </g>
      <g>
        <path class="st1" d="M110.84,152.44c.56,0,.56.8,0,.8h-2.55c0,2.07.01,4.18.01,6.26,0,.29-.24.43-.43.43s-.41-.14-.41-.43v-6.26h-2.54c-.54,0-.54-.8,0-.8h5.92Z"/>
        <path class="st1" d="M107.87,160.14c-.31,0-.63-.23-.63-.65v-6.03h-2.31c-.4,0-.62-.32-.62-.62,0-.16.06-.31.16-.42.11-.13.28-.2.47-.2h5.92c.42,0,.64.32.64.62s-.23.62-.64.62h-2.33c0,.96,0,1.93,0,2.91,0,1.05,0,2.09,0,3.13,0,.41-.33.65-.65.65ZM104.93,152.67c-.17,0-.18.13-.18.17s.01.17.18.17h2.76v6.48c0,.2.17.2.19.2.06,0,.21-.04.21-.2,0-1.04,0-2.08,0-3.13,0-1.05,0-2.09,0-3.13v-.22h2.77c.18,0,.2-.13.2-.17s-.01-.17-.2-.17h-5.92Z"/>
      </g>
      <g>
        <path class="st1" d="M118.05,155.88h4.2v-3.15c0-.55.83-.55.83,0v6.72c0,.56-.83.59-.83,0v-2.85h-4.2v2.85c0,.6-.82.53-.82,0v-6.72c0-.56.82-.53.82,0v3.15Z"/>
        <path class="st1" d="M122.66,160.1c-.31,0-.63-.22-.63-.65v-2.62h-3.76v2.62c0,.25-.1.4-.19.48-.33.32-1.07.13-1.07-.48v-6.72c0-.19.07-.36.2-.48.33-.3,1.07-.15,1.07.48v2.92h3.76v-2.92c0-.83,1.28-.83,1.28,0v6.72c0,.43-.33.65-.64.65ZM117.83,156.38h4.65v3.07c0,.19.13.21.19.21.03,0,.2-.01.2-.21v-6.72c0-.18-.15-.19-.2-.19s-.2.01-.2.19v3.37h-4.65v-3.37c0-.18-.18-.19-.2-.19-.05,0-.1.02-.13.04-.03.03-.05.08-.05.14v6.72c0,.16.14.2.21.2.05,0,.09-.01.12-.04.04-.03.05-.09.05-.16v-3.07Z"/>
      </g>
      <g>
        <path class="st1" d="M124.89,155.99c0-1.81,1.21-3.35,3.03-3.64.42-.06.81-.05,1.21,0,1.76.28,3.12,1.75,3.12,3.64,0,2.4-1.71,3.92-3.66,3.92-2.06,0-3.7-1.47-3.7-3.92ZM125.75,156.03c0,1.89,1.23,3.09,2.84,3.09s2.81-1.15,2.81-3.09c0-1.49-.97-2.67-2.38-2.9-.34-.05-.67-.05-.99,0-1.38.22-2.28,1.34-2.28,2.9Z"/>
        <path class="st1" d="M128.59,160.13c-2.31,0-3.92-1.7-3.92-4.14,0-1.97,1.32-3.56,3.21-3.86.41-.06.8-.06,1.27,0,1.92.3,3.31,1.93,3.31,3.86,0,2.36-1.67,4.14-3.88,4.14ZM128.5,152.53c-.19,0-.37.01-.55.04-1.67.26-2.84,1.67-2.84,3.42,0,2.18,1.43,3.69,3.48,3.69,1.67,0,3.43-1.3,3.43-3.69,0-1.71-1.23-3.15-2.93-3.42-.21-.02-.41-.04-.6-.04ZM128.59,159.34c-1.81,0-3.07-1.36-3.07-3.31,0-1.66.97-2.89,2.47-3.12.34-.05.7-.05,1.06,0,1.51.25,2.57,1.53,2.57,3.13,0,1.95-1.25,3.31-3.03,3.31ZM128.52,153.31c-.16,0-.31.01-.46.03-1.29.2-2.09,1.23-2.09,2.68,0,1.69,1.08,2.87,2.62,2.87s2.59-1.18,2.59-2.87c0-1.37-.9-2.47-2.19-2.68-.16-.02-.31-.03-.47-.03Z"/>
      </g>
      <g>
        <path class="st1" d="M138.98,152.44c.56,0,.56.8,0,.8h-2.55c0,2.07.01,4.18.01,6.26,0,.29-.24.43-.43.43s-.41-.14-.41-.43v-6.26h-2.54c-.54,0-.54-.8,0-.8h5.92Z"/>
        <path class="st1" d="M136.01,160.14c-.31,0-.63-.23-.63-.65v-6.03h-2.32c-.4,0-.62-.32-.62-.62,0-.16.06-.31.16-.42.11-.13.28-.2.47-.2h5.92c.42,0,.64.32.64.62s-.23.62-.64.62h-2.33c0,.96,0,1.93,0,2.91,0,1.05,0,2.09,0,3.13,0,.41-.33.65-.65.65ZM133.06,152.67c-.17,0-.18.13-.18.17s.01.17.18.17h2.76v6.48c0,.2.17.2.19.2.06,0,.21-.04.21-.2,0-1.04,0-2.08,0-3.13,0-1.05,0-2.09,0-3.13v-.22h2.77c.18,0,.2-.13.2-.17s-.01-.17-.2-.17h-5.92Z"/>
      </g>
      <g>
        <path class="st1" d="M141.49,159.02h4.51c.48,0,.55.76,0,.76h-4.81c-.32,0-.53-.23-.53-.51v-6.33c0-.26.21-.5.53-.5h4.82c.49,0,.47.74-.01.74h-4.51v2.59h4.3c.46,0,.48.74,0,.74h-4.3v2.5Z"/>
        <path class="st1" d="M146,160.01h-4.81c-.43,0-.75-.31-.75-.73v-6.33c0-.41.32-.72.75-.72h4.82c.17,0,.33.07.43.19.09.11.14.25.14.4,0,.29-.21.6-.59.6h-4.29v2.15h4.08c.33,0,.57.26.57.6,0,.15-.05.29-.14.39-.1.12-.26.19-.43.19h-4.08v2.05h4.29c.38,0,.61.32.61.62,0,.15-.05.3-.15.4-.08.08-.22.18-.45.18ZM141.19,152.68c-.21,0-.3.14-.3.27v6.33c0,.14.09.28.3.28h4.81s.1,0,.13-.04c.03-.03.03-.07.03-.1,0-.06-.03-.18-.16-.18h-4.73v-2.95h4.52c.11,0,.13-.08.13-.14,0-.03,0-.15-.13-.15h-4.52v-3.04h4.73c.14,0,.15-.13.15-.16,0-.06-.02-.14-.14-.14h-4.82Z"/>
      </g>
      <g>
        <path class="st1" d="M148.68,159.78c-.31,0-.43-.15-.43-.43v-6.61c0-.54.84-.54.84,0v6.28h4.27c.58,0,.58.76,0,.76h-4.68Z"/>
        <path class="st1" d="M153.37,160.01h-4.68c-.42,0-.65-.24-.65-.65v-6.61c0-.82,1.29-.82,1.29,0v6.06h4.05c.43,0,.66.3.66.6,0,.16-.06.31-.18.42-.08.08-.24.18-.48.18ZM148.67,152.56s-.2.01-.2.18v6.61c0,.16.03.2.21.2h4.68c.16,0,.22-.08.22-.16s-.06-.16-.22-.16h-4.49v-6.5c0-.17-.15-.18-.2-.18Z"/>
      </g>
      <g>
        <path class="st1" d="M155.34,157.96c.3.96,1.57,1.16,2.48,1.16.97,0,2.48-.3,2.48-1.46,0-1-1.2-1.08-2.46-1.19-1.58-.13-3.27-.28-3.27-1.99,0-1.52,1.74-2.2,3.13-2.2,1.2,0,2.7.29,3.18,1.6.17.46-.61.67-.78.28-.34-.88-1.57-1.03-2.39-1.03-.77,0-2.25.31-2.25,1.36s1.14,1.11,2.47,1.21c1.57.14,3.24.22,3.24,1.95s-1.95,2.3-3.36,2.3c-1.17,0-2.95-.4-3.32-1.79-.14-.51.75-.68.85-.21Z"/>
        <path class="st1" d="M157.82,160.18c-1.39,0-3.14-.51-3.54-1.95-.06-.21,0-.42.15-.56.18-.18.49-.25.74-.17.2.06.34.21.38.41.29.9,1.68,1,2.26,1,.23,0,2.26-.03,2.26-1.24,0-.73-.83-.85-2.18-.96h-.07c-1.55-.13-3.47-.28-3.47-2.22,0-1.59,1.69-2.42,3.35-2.42,1.8,0,2.97.6,3.38,1.75.11.3-.03.6-.34.73-.3.12-.7.05-.85-.28-.3-.78-1.5-.89-2.19-.89-.53,0-2.03.21-2.03,1.14,0,.76.86.88,2.26.99h.17c1.54.15,3.28.3,3.28,2.17,0,1.75-1.8,2.53-3.58,2.53ZM154.96,157.91c-.08,0-.17.03-.22.08-.04.04-.05.07-.03.13.33,1.2,1.88,1.62,3.11,1.62.32,0,3.14-.06,3.14-2.08,0-1.36-1.14-1.56-2.87-1.71l-.17-.02c-1.31-.1-2.67-.21-2.67-1.43s1.48-1.58,2.47-1.58c1.4,0,2.29.4,2.59,1.17.03.07.17.08.27.04.13-.05.1-.13.09-.16-.44-1.2-1.86-1.46-2.97-1.46s-2.91.54-2.91,1.98,1.27,1.63,3.06,1.77h.07c1.27.11,2.59.22,2.59,1.41s-1.45,1.69-2.7,1.69c-.85,0-2.33-.17-2.69-1.32v-.02s-.03-.06-.09-.08c-.03,0-.05-.01-.08-.01Z"/>
      </g>
      <g>
        <path class="st1" d="M180.64,157.21v2.24c0,.53-.83.53-.83.01v-6.61c0-.24.17-.4.42-.4h2.71c1.98,0,2.98,1.13,2.98,2.48,0,1.16-.63,2.01-2.03,2.25l1.85,2.02c.43.44-.19.94-.57.55l-2.31-2.52h-2.22ZM180.64,156.49h2.31c1.5,0,2.15-.7,2.13-1.57-.01-.94-.8-1.71-2.13-1.71h-2.31v3.27Z"/>
        <path class="st1" d="M185.47,160.1c-.17,0-.34-.07-.47-.21l-2.25-2.46h-1.9v2.01c0,.61-.73.76-1.07.47-.13-.11-.21-.28-.21-.46v-6.61c0-.36.27-.63.64-.63h2.71c2.21,0,3.2,1.36,3.2,2.7,0,1.22-.65,2.05-1.83,2.38l1.59,1.73c.17.17.24.4.19.61-.06.21-.23.38-.45.43-.05.01-.1.02-.16.02ZM180.41,156.99h2.53l2.37,2.6c.07.07.15.08.2.06.06-.02.12-.06.13-.12.02-.07-.03-.14-.08-.19l-2.13-2.32.4-.07c1.23-.21,1.85-.89,1.85-2.03,0-1.37-1.08-2.25-2.76-2.25h-2.71c-.08,0-.2.02-.2.18v6.61c0,.15.15.16.19.16s.2-.01.2-.18v-2.46ZM182.94,156.71h-2.53v-3.72h2.53c1.37,0,2.33.79,2.35,1.93.01.45-.14.85-.43,1.15-.4.42-1.07.64-1.91.64ZM180.86,156.27h2.09c.73,0,1.28-.17,1.6-.51.21-.22.32-.5.31-.83-.01-.89-.78-1.49-1.9-1.49h-2.09v2.83Z"/>
      </g>
      <g>
        <path class="st1" d="M188.41,159.02h4.51c.48,0,.55.76,0,.76h-4.81c-.32,0-.53-.23-.53-.51v-6.33c0-.26.21-.5.53-.5h4.82c.49,0,.47.74-.01.74h-4.51v2.59h4.3c.46,0,.48.74,0,.74h-4.3v2.5Z"/>
        <path class="st1" d="M192.93,160.01h-4.81c-.43,0-.75-.31-.75-.73v-6.33c0-.41.32-.72.75-.72h4.82c.17,0,.33.07.43.19.09.11.14.25.14.4,0,.29-.21.6-.59.6h-4.29v2.15h4.08c.33,0,.57.26.57.6,0,.15-.05.29-.14.4-.11.12-.26.19-.43.19h-4.08v2.05h4.29c.38,0,.61.32.61.62,0,.15-.06.3-.15.4-.08.08-.22.18-.45.18ZM188.12,152.68c-.21,0-.3.14-.3.27v6.33c0,.14.09.28.3.28h4.81s.1,0,.13-.04c.03-.03.03-.07.03-.1,0-.06-.03-.18-.17-.18h-4.73v-2.95h4.52c.07,0,.09-.03.1-.04.02-.02.03-.06.03-.1,0-.03,0-.15-.13-.15h-4.52v-3.04h4.73c.14,0,.15-.12.15-.16,0-.04-.01-.08-.03-.1,0,0-.03-.04-.11-.04h-4.82Z"/>
      </g>
      <g>
        <path class="st1" d="M195.41,157.96c.3.96,1.57,1.16,2.48,1.16.97,0,2.48-.3,2.48-1.46,0-1-1.2-1.08-2.46-1.19-1.58-.13-3.27-.28-3.27-1.99,0-1.52,1.74-2.2,3.13-2.2,1.2,0,2.7.29,3.18,1.6.17.46-.61.67-.78.28-.34-.88-1.57-1.03-2.39-1.03-.77,0-2.25.31-2.25,1.36s1.14,1.11,2.47,1.21c1.57.14,3.24.22,3.24,1.95s-1.95,2.3-3.36,2.3c-1.17,0-2.95-.4-3.32-1.79-.14-.51.75-.68.85-.21Z"/>
        <path class="st1" d="M197.88,160.18c-1.39,0-3.14-.51-3.54-1.95-.06-.21,0-.42.15-.56.19-.18.49-.25.74-.17.2.06.34.21.38.41.29.9,1.68,1,2.26,1,.23,0,2.26-.03,2.26-1.24,0-.73-.83-.85-2.18-.96h-.07c-1.55-.13-3.47-.28-3.47-2.22,0-1.59,1.69-2.42,3.35-2.42,1.8,0,2.97.6,3.38,1.75.11.3-.03.6-.34.73-.3.12-.7.05-.85-.28-.3-.78-1.5-.89-2.19-.89-.53,0-2.03.21-2.03,1.14,0,.76.86.88,2.26.99h.17c1.54.15,3.28.3,3.28,2.17,0,1.75-1.8,2.53-3.58,2.53ZM195.02,157.91c-.08,0-.17.03-.22.08-.04.04-.05.07-.03.13.33,1.2,1.88,1.62,3.11,1.62.32,0,3.14-.06,3.14-2.08,0-1.36-1.14-1.56-2.87-1.71l-.17-.02c-1.31-.1-2.67-.21-2.67-1.43s1.48-1.58,2.47-1.58c1.4,0,2.29.4,2.59,1.17.03.07.17.08.27.04.13-.05.1-.13.09-.16-.44-1.2-1.86-1.46-2.97-1.46s-2.91.54-2.91,1.98,1.27,1.63,3.06,1.77h.07c1.27.11,2.59.22,2.59,1.41s-1.45,1.69-2.7,1.69c-.85,0-2.33-.17-2.69-1.32v-.02s-.03-.06-.09-.08c-.03,0-.05-.01-.08-.01Z"/>
      </g>
      <g>
        <path class="st1" d="M202.51,155.99c0-1.81,1.21-3.35,3.03-3.64.42-.06.81-.05,1.21,0,1.76.28,3.12,1.75,3.12,3.64,0,2.4-1.71,3.92-3.66,3.92-2.06,0-3.7-1.47-3.7-3.92ZM203.37,156.03c0,1.89,1.23,3.09,2.84,3.09s2.81-1.15,2.81-3.09c0-1.49-.97-2.67-2.38-2.9-.34-.05-.67-.05-.99,0-1.38.22-2.28,1.34-2.28,2.9Z"/>
        <path class="st1" d="M206.21,160.13c-2.31,0-3.92-1.7-3.92-4.14,0-1.97,1.32-3.56,3.21-3.86.41-.06.8-.06,1.27,0,1.92.3,3.31,1.93,3.31,3.86,0,2.36-1.67,4.14-3.88,4.14ZM206.12,152.53c-.19,0-.37.01-.55.04-1.67.26-2.84,1.67-2.84,3.42,0,2.18,1.43,3.69,3.48,3.69,1.67,0,3.43-1.3,3.43-3.69,0-1.71-1.23-3.15-2.93-3.42-.21-.02-.41-.04-.6-.04ZM206.21,159.34c-1.81,0-3.07-1.36-3.07-3.31,0-1.66.97-2.89,2.47-3.12.34-.05.7-.05,1.06,0,1.51.25,2.57,1.53,2.57,3.13,0,1.95-1.25,3.31-3.03,3.31ZM206.14,153.31c-.16,0-.31.01-.46.03-1.29.2-2.09,1.23-2.09,2.68,0,1.69,1.08,2.87,2.62,2.87s2.59-1.18,2.59-2.87c0-1.37-.9-2.47-2.19-2.68-.16-.02-.31-.03-.47-.03Z"/>
      </g>
      <g>
        <path class="st1" d="M212.59,157.21v2.24c0,.53-.83.53-.83.01v-6.61c0-.24.17-.4.42-.4h2.71c1.98,0,2.98,1.13,2.98,2.48,0,1.16-.63,2.01-2.03,2.25l1.85,2.02c.43.44-.19.94-.57.55l-2.31-2.52h-2.22ZM212.59,156.49h2.31c1.5,0,2.15-.7,2.13-1.57-.01-.94-.8-1.71-2.13-1.71h-2.31v3.27Z"/>
        <path class="st1" d="M217.42,160.1c-.17,0-.34-.07-.47-.21l-2.25-2.46h-1.9v2.01c0,.61-.73.76-1.07.47-.13-.11-.21-.28-.21-.46v-6.61c0-.36.27-.63.64-.63h2.71c2.21,0,3.2,1.36,3.2,2.7,0,1.22-.65,2.05-1.83,2.38l1.59,1.73c.17.17.24.4.19.61-.06.21-.23.38-.45.43-.05.01-.11.02-.16.02ZM212.37,156.99h2.53l2.37,2.6c.07.07.15.08.2.06.06-.02.12-.07.13-.12.02-.07-.03-.14-.08-.19l-2.13-2.32.4-.07c1.23-.21,1.85-.89,1.85-2.03,0-1.37-1.08-2.25-2.76-2.25h-2.71c-.08,0-.2.02-.2.18v6.61c0,.15.15.16.19.16.05,0,.2-.01.2-.18v-2.46ZM214.89,156.71h-2.53v-3.72h2.53c1.37,0,2.33.79,2.35,1.93.01.45-.14.85-.43,1.15-.4.42-1.07.64-1.91.64ZM212.81,156.27h2.09c.73,0,1.28-.17,1.6-.51.21-.22.32-.5.31-.83-.01-.89-.78-1.49-1.9-1.49h-2.09v2.83Z"/>
      </g>
      <g>
        <path class="st1" d="M225.11,152.44c.56,0,.56.8,0,.8h-2.55c0,2.07.01,4.18.01,6.26,0,.29-.24.43-.43.43s-.41-.14-.41-.43v-6.26h-2.54c-.54,0-.54-.8,0-.8h5.92Z"/>
        <path class="st1" d="M222.14,160.14c-.31,0-.63-.23-.63-.65v-6.03h-2.31c-.4,0-.62-.32-.62-.62,0-.16.06-.31.16-.42.11-.13.28-.2.47-.2h5.92c.42,0,.64.32.64.62s-.23.62-.64.62h-2.33c0,.96,0,1.93,0,2.91,0,1.05,0,2.09,0,3.13,0,.41-.33.65-.65.65ZM219.19,152.67c-.17,0-.18.13-.18.17s.01.17.18.17h2.76v6.48c0,.2.17.2.19.2.06,0,.21-.04.21-.2,0-1.04,0-2.08,0-3.13,0-1.05,0-2.09,0-3.13v-.22h2.77c.18,0,.2-.13.2-.17s-.01-.17-.2-.17h-5.92Z"/>
      </g>
      <g>
        <path class="st1" d="M227.03,157.96c.3.96,1.57,1.16,2.48,1.16.97,0,2.48-.3,2.48-1.46,0-1-1.2-1.08-2.46-1.19-1.58-.13-3.27-.28-3.27-1.99,0-1.52,1.74-2.2,3.13-2.2,1.2,0,2.7.29,3.18,1.6.17.46-.61.67-.78.28-.34-.88-1.57-1.03-2.39-1.03-.77,0-2.25.31-2.25,1.36s1.14,1.11,2.47,1.21c1.56.14,3.24.22,3.24,1.95s-1.95,2.3-3.36,2.3c-1.17,0-2.95-.4-3.32-1.79-.14-.51.75-.68.85-.21Z"/>
        <path class="st1" d="M229.5,160.18c-1.39,0-3.14-.51-3.54-1.95-.06-.21,0-.42.15-.56.18-.18.49-.25.74-.17.2.06.34.21.38.41.29.9,1.68,1,2.26,1,.23,0,2.26-.03,2.26-1.24,0-.73-.83-.85-2.18-.96h-.07c-1.55-.13-3.47-.28-3.47-2.22,0-1.59,1.69-2.42,3.35-2.42,1.8,0,2.97.6,3.38,1.75.11.3-.03.6-.34.73-.3.12-.7.05-.85-.28-.3-.78-1.5-.89-2.19-.89-.53,0-2.03.21-2.03,1.14,0,.76.86.88,2.26.99h.17c1.53.15,3.27.3,3.27,2.17,0,1.75-1.8,2.53-3.58,2.53ZM226.64,157.91c-.08,0-.17.03-.22.08-.04.04-.05.07-.03.13.33,1.2,1.88,1.62,3.11,1.62.32,0,3.14-.06,3.14-2.08,0-1.36-1.14-1.56-2.87-1.71l-.17-.02c-1.31-.1-2.67-.21-2.67-1.43s1.48-1.58,2.47-1.58c1.4,0,2.29.4,2.59,1.17.03.07.17.08.27.04.13-.05.1-.13.09-.16-.44-1.2-1.86-1.46-2.97-1.46s-2.91.54-2.91,1.98,1.27,1.63,3.06,1.77h.07c1.27.11,2.59.22,2.59,1.41s-1.45,1.69-2.7,1.69c-.85,0-2.33-.17-2.69-1.32v-.02s-.03-.06-.09-.08c-.03,0-.05-.01-.08-.01Z"/>
      </g>
    </g>
    <g>
      <path class="st1" d="M173.46,158.73c-.27-.22-.48-.39-.6-.5.2-.34.35-.64.46-.92.11-.28.16-.49.16-.64,0-.17-.06-.31-.18-.42-.12-.12-.26-.17-.42-.17-.17,0-.3.06-.4.18-.09.12-.19.31-.3.57-.11.26-.19.45-.24.54-.11-.11-.24-.24-.37-.4-.14-.15-.28-.32-.43-.5-.15-.18-.31-.37-.48-.57.49-.3.86-.59,1.12-.87.25-.29.38-.62.38-1.01,0-.28-.08-.55-.23-.82-.16-.26-.39-.47-.7-.64-.31-.16-.69-.24-1.12-.24s-.81.08-1.13.23-.56.36-.73.63c-.17.26-.25.56-.25.88,0,.27.07.53.2.78.13.25.33.54.58.87-.29.15-.54.3-.76.46-.22.16-.4.32-.55.5-.15.17-.26.37-.35.58-.08.22-.12.45-.12.71s.05.53.16.79c.11.26.28.5.5.71.23.21.51.38.85.51.34.13.72.19,1.15.19.33,0,.64-.03.91-.1.27-.07.53-.17.76-.3s.47-.31.69-.52c.49.4.81.66.96.76s.31.15.47.15.3-.06.43-.18c.13-.12.19-.27.19-.45,0-.13-.03-.24-.09-.32-.06-.08-.23-.23-.51-.46ZM169.54,153.46c.16-.15.36-.22.59-.22s.43.07.59.22c.16.14.23.32.23.54s-.08.4-.23.56c-.16.15-.41.34-.76.57-.14-.18-.26-.33-.35-.44-.09-.12-.16-.23-.22-.35-.06-.12-.09-.23-.09-.33,0-.2.08-.37.24-.52ZM170.67,158.78c-.15.1-.3.18-.47.24-.16.06-.33.08-.51.08s-.35-.03-.51-.1c-.16-.07-.3-.16-.42-.28-.12-.12-.21-.26-.28-.4-.06-.14-.09-.3-.09-.45,0-.28.09-.52.26-.72s.43-.41.78-.61c.34.41.63.76.87,1.04.24.28.52.56.82.84-.16.15-.31.28-.46.38Z"/>
      <path class="st1" d="M173.44,160.37c-.21,0-.4-.06-.59-.19-.14-.09-.4-.3-.83-.65-.19.16-.39.3-.59.42-.25.14-.53.25-.82.32-.29.07-.61.1-.96.1-.45,0-.86-.07-1.23-.2-.37-.14-.68-.32-.92-.56-.25-.23-.43-.5-.55-.79-.12-.29-.18-.58-.18-.88,0-.28.05-.55.14-.79.09-.24.22-.46.38-.65.16-.19.36-.36.59-.53.16-.12.35-.23.55-.35-.19-.25-.33-.48-.44-.69-.15-.29-.22-.58-.22-.89,0-.36.09-.7.28-.99.19-.3.46-.54.82-.71.7-.34,1.75-.34,2.44.01.35.18.62.42.79.72.18.29.26.61.26.93,0,.44-.15.83-.43,1.15-.23.26-.54.52-.95.78.11.13.21.26.31.38.14.18.28.34.42.49.05.06.1.11.14.16.03-.07.06-.15.1-.24.12-.29.23-.49.33-.63.26-.33.8-.35,1.14-.03.17.16.25.36.25.58,0,.18-.06.42-.17.72-.09.24-.22.51-.38.79.12.1.27.22.46.38h0c.39.32.5.43.54.49.09.12.14.28.14.46,0,.24-.09.45-.26.61-.17.16-.36.24-.58.24ZM172.01,158.94l.15.12c.49.41.8.65.94.75.21.15.43.17.62,0,.08-.08.12-.17.12-.29,0-.08-.02-.15-.05-.19-.03-.04-.13-.14-.47-.42h0c-.28-.23-.48-.39-.61-.51l-.14-.12.1-.16c.19-.33.34-.63.44-.89.12-.31.14-.48.14-.56,0-.1-.04-.18-.11-.26-.08-.08-.17-.11-.27-.11-.13,0-.19.05-.23.09-.05.07-.15.21-.27.52-.11.28-.19.46-.25.56l-.14.26-.21-.21c-.11-.11-.24-.25-.38-.41-.14-.16-.28-.33-.43-.51-.15-.18-.3-.37-.47-.57l-.17-.2.22-.13c.47-.28.83-.56,1.06-.83.22-.25.32-.53.32-.86,0-.24-.07-.47-.2-.7-.13-.22-.34-.41-.61-.55-.57-.29-1.48-.29-2.05,0-.28.14-.5.32-.64.55-.14.23-.21.48-.21.76,0,.23.06.46.17.68.12.24.31.52.56.83l.17.21-.24.12c-.28.14-.52.29-.73.44-.2.15-.37.3-.51.46-.13.15-.23.33-.31.52-.07.19-.11.4-.11.63s.05.48.15.71c.1.23.25.44.45.63.2.19.46.35.77.46.56.21,1.36.22,1.93.08.25-.06.49-.15.71-.28.22-.12.44-.29.65-.48l.14-.13ZM169.7,159.32c-.21,0-.4-.04-.59-.11-.19-.08-.35-.19-.5-.33-.14-.14-.25-.3-.32-.47-.08-.17-.11-.36-.11-.54,0-.33.11-.62.31-.87.19-.22.46-.44.84-.66l.16-.09.12.15c.34.41.62.75.87,1.03.24.27.51.55.8.82l.17.16-.17.16c-.17.16-.33.3-.48.4h0c-.16.11-.34.2-.52.26-.19.06-.38.09-.58.09ZM169.39,156.82c-.25.16-.44.31-.56.46-.14.16-.21.35-.21.58,0,.13.03.25.08.37.05.12.13.23.23.34.1.1.22.18.35.23.27.11.57.11.86.01.14-.05.28-.12.41-.21h0c.08-.06.17-.12.25-.2-.24-.23-.46-.46-.66-.69-.21-.24-.47-.54-.75-.89ZM169.91,155.41l-.12-.15c-.14-.18-.26-.33-.35-.45-.09-.12-.18-.25-.24-.39-.08-.15-.11-.3-.11-.43,0-.26.1-.49.31-.68h0c.4-.37,1.08-.37,1.48,0,.2.19.3.42.3.7s-.1.52-.3.71c-.17.16-.42.36-.79.59l-.17.11ZM169.69,153.62c-.11.11-.17.22-.17.36,0,.07.02.15.07.23.06.11.12.22.2.32.06.08.13.17.22.28.25-.17.44-.31.55-.43.11-.11.17-.24.17-.4s-.05-.27-.16-.37c-.23-.21-.64-.21-.88,0Z"/>
    </g>
  </g>
</svg>