<?xml version="1.0" encoding="UTF-8"?>
<svg id="Capa_1" xmlns="http://www.w3.org/2000/svg" version="1.1" viewBox="0 0 256 256">
  <!-- Generator: Adobe Illustrator 29.2.1, SVG Export Plug-In . SVG Version: 2.1.0 Build 116)  -->
  <defs>
    <style>
      .st0 {
        fill: #951919;
      }
    </style>
  </defs>
  <path class="st0" d="M94.38,86.71l23.48-23.48s4.31-4.4,8.89.18l10.42-10.38s-10.78-15.94-23.04-6.34l-41.09,39.79,35.86,35.86,37.9-37.9,14.8,14.8-21.21,21.21s-5.17,6.16-11.34,0l-10.6,10.61s16.83,16.11,32.48.46l32.02-32.01-36.02-36.02-38.01,38.02-14.55-14.81Z"/>
  <g>
    <g>
      <path class="st0" d="M29.65,185.39c1.24,3.95,6.52,4.81,10.33,4.81,4.04,0,10.33-1.24,10.33-6.04,0-4.14-4.99-4.48-10.23-4.9-6.57-.53-13.61-1.14-13.61-8.23,0-6.28,7.24-9.09,13.04-9.09,4.99,0,11.23,1.19,13.23,6.61.72,1.9-2.52,2.76-3.23,1.15-1.43-3.62-6.53-4.24-9.95-4.24-3.2,0-9.38,1.29-9.38,5.62s4.76,4.57,10.29,4.99c6.52.57,13.52.91,13.52,8.04s-8.14,9.52-14,9.52c-4.85,0-12.28-1.67-13.85-7.38-.58-2.09,3.14-2.8,3.52-.85Z"/>
      <path class="st0" d="M39.98,194.12c-5.63,0-12.76-2.03-14.33-7.75-.2-.72-.02-1.4.51-1.91.65-.63,1.77-.88,2.67-.6.69.22,1.17.73,1.31,1.4,1.23,3.86,6.69,4.43,9.85,4.43,1.01,0,9.83-.16,9.83-5.55,0-3.61-4.41-3.97-9.52-4.39l-.26-.02c-6.6-.53-14.07-1.13-14.07-8.73,0-3.03,1.59-5.57,4.59-7.33,2.45-1.44,5.71-2.26,8.95-2.26,5.08,0,11.59,1.2,13.7,6.94.39,1.03-.09,2.02-1.18,2.46-1.07.44-2.48.2-2.98-.94-1.29-3.26-5.87-3.94-9.49-3.94s-8.88,1.39-8.88,5.13c0,3.48,3.71,4.02,9.83,4.5l.71.06c6.22.53,13.27,1.14,13.27,8.48,0,4.62-3.8,10.02-14.5,10.02ZM28.05,184.74c-.45,0-.92.16-1.2.44-.26.25-.34.56-.24.93,1.42,5.18,8.09,7.02,13.37,7.02,9.96,0,13.5-4.86,13.5-9.02,0-6.42-6-6.94-12.36-7.49l-.7-.06c-5.28-.41-10.74-.83-10.74-5.49s5.91-6.12,9.88-6.12,8.92.79,10.41,4.56c.25.56,1.07.65,1.68.4.28-.11.9-.46.62-1.19-1.91-5.2-8-6.29-12.76-6.29-6.08,0-12.55,3.01-12.55,8.6,0,6.68,6.69,7.21,13.16,7.73l.26.02c5.13.42,10.43.85,10.43,5.38,0,4.83-5.83,6.54-10.83,6.54-3.43,0-9.4-.67-10.8-5.16v-.05c-.08-.34-.29-.56-.65-.67-.15-.05-.31-.07-.47-.07Z"/>
    </g>
    <g>
      <path class="st0" d="M58.09,177.25c0-7.47,5.05-13.85,12.62-15.04,1.76-.24,3.38-.19,5.04,0,7.33,1.14,13,7.23,13,15.04,0,9.89-7.14,16.18-15.23,16.18-8.57,0-15.42-6.09-15.42-16.18ZM61.66,177.39c0,7.8,5.14,12.75,11.85,12.75s11.71-4.76,11.71-12.75c0-6.15-4.05-11.04-9.9-12-1.43-.19-2.81-.19-4.14,0-5.76.9-9.52,5.53-9.52,12Z"/>
      <path class="st0" d="M73.51,193.93c-9.37,0-15.92-6.86-15.92-16.68,0-7.94,5.36-14.33,13.04-15.54,1.65-.22,3.24-.23,5.17,0,7.79,1.21,13.44,7.75,13.44,15.54,0,9.51-6.76,16.68-15.73,16.68ZM73.12,162.54c-.8,0-1.57.05-2.35.16-7.17,1.13-12.19,7.11-12.19,14.55,0,9.23,6.14,15.68,14.92,15.68s14.73-6.74,14.73-15.68c0-7.3-5.29-13.42-12.57-14.55-.91-.1-1.75-.16-2.55-.16ZM73.51,190.64c-7.27,0-12.35-5.45-12.35-13.25,0-6.64,3.9-11.55,9.94-12.49,1.38-.2,2.82-.2,4.28,0,6.09.99,10.33,6.13,10.33,12.49,0,7.8-5.02,13.25-12.21,13.25ZM73.22,165.75c-.67,0-1.33.05-1.97.14-5.52.86-9.09,5.38-9.09,11.5,0,7.22,4.67,12.26,11.35,12.26s11.21-5.04,11.21-12.26c0-5.86-3.9-10.59-9.48-11.5-.68-.09-1.36-.14-2.02-.14Z"/>
    </g>
    <g>
      <path class="st0" d="M97.23,192.91c-1.28,0-1.8-.62-1.8-1.77v-27.32c0-2.24,3.52-2.24,3.52,0v25.94h17.8c2.43,0,2.43,3.15,0,3.15h-19.52Z"/>
      <path class="st0" d="M116.75,193.4h-19.52c-1.5,0-2.3-.78-2.3-2.26v-27.32c0-2.86,4.52-2.86,4.52,0v25.44h17.3c1.52,0,2.32,1.04,2.32,2.07,0,.55-.22,1.06-.61,1.44-.3.29-.83.63-1.71.63ZM97.19,162.64c-.47,0-1.26.25-1.26,1.18v27.32c0,.92.35,1.27,1.3,1.27h19.52c.91,0,1.32-.54,1.32-1.08s-.41-1.08-1.32-1.08h-18.3v-26.44c0-.93-.79-1.18-1.26-1.18Z"/>
    </g>
    <g>
      <path class="st0" d="M125.06,163.25c0-2.38,3.57-2.33,3.57,0v28.47c0,2.19-3.57,2.28-3.57,0v-28.47Z"/>
      <path class="st0" d="M126.81,193.89c-1.12,0-2.25-.75-2.25-2.17v-28.47c0-2.99,4.57-2.96,4.57,0v28.47c0,1.43-1.16,2.17-2.31,2.17ZM126.83,161.98c-.59,0-1.27.33-1.27,1.27v28.47c0,.87.68,1.18,1.26,1.18.63,0,1.32-.37,1.32-1.18v-28.47c0-.88-.65-1.27-1.3-1.27Z"/>
    </g>
    <g>
      <path class="st0" d="M157.33,163.78c0-2.01,3.62-2.1,3.62,0v27.32c0,2.38-3.29,2.61-4.28.95l-17.8-23.85.38,6.57v16.8c0,2.33-3.62,2.38-3.62,0v-27.28c0-2.38,2.67-2.76,3.86-1l18.32,24.51-.48-7.19v-16.85Z"/>
      <path class="st0" d="M137.42,193.84c-1.14,0-2.3-.78-2.3-2.26v-27.28c0-1.22.64-2.17,1.68-2.49,1.13-.34,2.37.14,3.09,1.21l17.3,23.14-.36-5.51v-16.88c0-1.34,1.17-2.04,2.34-2.04s2.28.7,2.28,2.04v27.32c0,1.19-.69,2.09-1.84,2.41-1.3.36-2.74-.16-3.37-1.2l-16.78-22.47.29,4.91v16.83c0,1.49-1.17,2.26-2.32,2.26ZM137.52,162.7c-.15,0-.29.02-.42.06-.62.19-.97.75-.97,1.53v27.28c0,.88.65,1.27,1.3,1.27.49,0,1.33-.27,1.33-1.27v-16.8l-.48-8.2,18.79,25.18c.47.78,1.52,1.01,2.27.8.42-.12,1.11-.46,1.11-1.45v-27.32c0-1.01-1.15-1.04-1.28-1.04-.46,0-1.34.22-1.34,1.04v16.85l.58,8.83-19.33-25.86c-.43-.64-1.05-.9-1.57-.9Z"/>
    </g>
    <g>
      <path class="st0" d="M189.62,191.72c-2.29,1.04-4.85,1.71-7.14,1.71-8.14,0-15.47-6.66-15.47-16.09,0-7.81,5.57-13.99,12.9-15.14,5.57-.77,10.42.62,14.19,4.57,1.43,1.62-1.14,3.57-2.48,2.14-3.23-3.42-7-3.94-11.19-3.47-5.86.91-9.99,5.05-9.99,11.95,0,7.24,5.57,12.75,12.14,12.75,1.76,0,3.71-.47,5.51-1.38,1.48-.76,2.91-1.9,3.91-3.18,1.09-1.62,4,.14,2.76,1.9-1.29,1.81-3.09,3.24-5.14,4.24Z"/>
      <path class="st0" d="M182.49,193.93c-8.95,0-15.97-7.29-15.97-16.59,0-7.85,5.6-14.42,13.32-15.63,5.94-.82,10.86.77,14.62,4.71.92,1.05.57,2.21-.15,2.86-.79.72-2.13.95-3.06-.03-2.71-2.87-5.92-3.86-10.77-3.32-5.97.92-9.55,5.21-9.55,11.45,0,6.76,5.22,12.26,11.64,12.26,1.71,0,3.59-.47,5.29-1.33,1.45-.74,2.81-1.85,3.74-3.05.38-.57,1.04-.88,1.77-.83.85.07,1.65.61,2,1.35.3.65.23,1.35-.21,1.97-1.28,1.8-3.12,3.33-5.33,4.4h-.01c-2.48,1.14-5.09,1.76-7.34,1.76ZM182.77,162.5c-.9,0-1.83.07-2.79.2-7.22,1.13-12.47,7.28-12.47,14.64,0,8.74,6.58,15.59,14.97,15.59,2.11,0,4.57-.59,6.92-1.66,2.06-1,3.77-2.41,4.95-4.08.23-.33.27-.66.12-.97-.19-.41-.69-.74-1.18-.78-.26-.02-.63.04-.89.42-1.04,1.33-2.52,2.54-4.1,3.35-1.84.93-3.88,1.44-5.74,1.44-6.97,0-12.64-5.95-12.64-13.25,0-6.78,3.89-11.43,10.42-12.44,3.47-.39,7.9-.33,11.63,3.62.55.59,1.29.31,1.66-.02.18-.16.7-.74.08-1.45-2.91-3.06-6.59-4.6-10.95-4.6Z"/>
    </g>
    <g>
      <path class="st0" d="M204.86,184.9l-3.85,7.52c-.87,1.77-4.01.53-3.15-1.38l14.38-28.32c.28-.61.96-.9,1.57-.9s1.19.29,1.53.9l14.33,28.18c1.24,2.05-2.28,3.24-3.19,1.38l-3.72-7.38h-17.89ZM213.81,166.92l-7.52,15h15l-7.48-15Z"/>
      <path class="st0" d="M199.6,193.77c-.38,0-.77-.09-1.1-.25-1.11-.52-1.56-1.63-1.08-2.69l14.39-28.34c.32-.71,1.12-1.17,2.01-1.17.84,0,1.56.42,1.96,1.16l14.34,28.2c.39.65.43,1.34.08,1.94-.41.69-1.28,1.13-2.23,1.09-.87-.03-1.57-.47-1.93-1.2l-3.58-7.1h-17.28l-3.71,7.25c-.39.79-1.12,1.12-1.86,1.12ZM213.81,162.32c-.38,0-.91.16-1.11.61l-14.39,28.34c-.38.84.44,1.27.61,1.35.47.22,1.3.29,1.65-.42l3.99-7.8h18.5l3.86,7.66c.26.54.79.64,1.08.65.53.02,1.11-.23,1.33-.6.16-.27.13-.59-.09-.95l-14.35-28.21c-.28-.52-.75-.63-1.08-.63ZM222.1,182.41h-16.61l8.32-16.61,8.29,16.61ZM207.1,181.41h13.38l-6.68-13.38-6.71,13.38Z"/>
    </g>
  </g>
  <g>
    <g>
      <path class="st0" d="M25.79,210.08c.33,1.05,1.74,1.28,2.75,1.28,1.08,0,2.75-.33,2.75-1.61,0-1.1-1.33-1.19-2.73-1.31-1.75-.14-3.63-.3-3.63-2.19,0-1.67,1.93-2.42,3.47-2.42,1.33,0,2.99.32,3.52,1.76.19.51-.67.74-.86.3-.38-.96-1.74-1.13-2.65-1.13-.85,0-2.5.34-2.5,1.5s1.27,1.22,2.74,1.33c1.74.15,3.6.24,3.6,2.14s-2.17,2.54-3.73,2.54c-1.29,0-3.27-.44-3.69-1.97-.15-.56.84-.75.94-.23Z"/>
      <path class="st0" d="M28.54,212.38c-1.49,0-3.38-.53-3.79-2.04-.05-.18,0-.35.13-.48.17-.16.46-.23.68-.15.18.06.29.18.33.35.33,1.05,1.8,1.2,2.65,1.2,1.22,0,2.65-.39,2.65-1.5,0-.99-1.18-1.08-2.56-1.19h-.07c-1.75-.15-3.72-.3-3.72-2.31,0-1.85,2.14-2.53,3.58-2.53,1.35,0,3.07.32,3.62,1.83.1.26-.02.51-.3.62-.27.11-.63.05-.76-.24-.35-.88-1.58-1.07-2.55-1.07s-2.39.38-2.39,1.39c0,.95,1,1.1,2.64,1.23l.19.02c1.64.14,3.51.3,3.51,2.23s-2.06,2.64-3.83,2.64ZM25.36,209.88c-.12,0-.25.05-.34.12-.08.07-.1.17-.07.28.38,1.39,2.17,1.89,3.59,1.89,1.67,0,3.62-.64,3.62-2.43s-1.61-1.87-3.32-2.02l-.19-.02c-1.46-.11-2.84-.22-2.84-1.44s1.56-1.6,2.6-1.6,2.36.21,2.75,1.2c.07.17.31.2.48.12.06-.03.26-.13.18-.35-.52-1.4-2.15-1.69-3.43-1.69-1.63,0-3.37.81-3.37,2.32,0,1.81,1.79,1.95,3.53,2.09h.07c1.41.12,2.75.23,2.75,1.41,0,1.27-1.54,1.72-2.86,1.72-.91,0-2.48-.18-2.85-1.35h0c-.02-.14-.12-.19-.19-.21-.04-.01-.09-.02-.14-.02Z"/>
    </g>
    <g>
      <path class="st0" d="M33.35,207.92c0-1.99,1.34-3.69,3.36-4.01.47-.06.9-.05,1.34,0,1.95.3,3.46,1.93,3.46,4.01,0,2.64-1.9,4.31-4.06,4.31-2.28,0-4.11-1.62-4.11-4.31ZM34.31,207.95c0,2.08,1.37,3.4,3.16,3.4s3.12-1.27,3.12-3.4c0-1.64-1.08-2.94-2.64-3.2-.38-.05-.75-.05-1.1,0-1.53.24-2.54,1.47-2.54,3.2Z"/>
      <path class="st0" d="M37.46,212.33c-2.48,0-4.21-1.82-4.21-4.42,0-2.1,1.42-3.79,3.45-4.11.44-.06.86-.06,1.37,0,2.06.32,3.55,2.05,3.55,4.11,0,2.52-1.79,4.42-4.16,4.42ZM37.36,203.97c-.22,0-.42.01-.63.04-1.92.3-3.27,1.91-3.27,3.9,0,2.48,1.65,4.2,4,4.2s3.95-1.81,3.95-4.2c0-1.96-1.42-3.6-3.37-3.9-.25-.03-.47-.04-.68-.04ZM37.46,211.46c-1.92,0-3.26-1.44-3.26-3.5,0-1.75,1.03-3.05,2.62-3.3.36-.05.75-.05,1.13,0,1.61.26,2.73,1.62,2.73,3.3,0,2.06-1.33,3.5-3.22,3.5ZM37.38,204.83c-.18,0-.36.01-.53.04-1.48.23-2.44,1.45-2.44,3.09,0,1.94,1.25,3.29,3.05,3.29s3.01-1.35,3.01-3.29c0-1.58-1.05-2.85-2.55-3.09-.18-.02-.36-.04-.54-.04Z"/>
    </g>
    <g>
      <path class="st0" d="M48.85,211.77c-.61.28-1.29.46-1.9.46-2.17,0-4.12-1.78-4.12-4.29,0-2.08,1.48-3.73,3.44-4.03,1.48-.2,2.78.17,3.78,1.22.38.43-.3.95-.66.57-.86-.91-1.86-1.05-2.98-.93-1.56.24-2.66,1.34-2.66,3.18s1.48,3.4,3.23,3.4c.47,0,.99-.13,1.47-.37.39-.2.77-.51,1.04-.85.29-.43,1.07.04.74.51-.34.48-.82.86-1.37,1.13Z"/>
      <path class="st0" d="M46.95,212.33c-2.37,0-4.23-1.93-4.23-4.39,0-2.08,1.48-3.82,3.53-4.14,1.58-.21,2.88.21,3.87,1.25.23.26.14.56-.04.72-.2.18-.54.24-.78,0-.73-.77-1.6-1.04-2.89-.89-1.61.25-2.57,1.4-2.57,3.08,0,1.82,1.4,3.29,3.13,3.29.46,0,.96-.13,1.42-.36.39-.2.75-.5,1-.82.1-.15.26-.23.45-.21.22.02.42.15.51.34.08.16.06.34-.05.5-.34.48-.82.88-1.41,1.16h0c-.66.3-1.35.47-1.95.47ZM47.02,203.96c-.24,0-.49.02-.74.05-1.94.3-3.34,1.95-3.34,3.93,0,2.34,1.76,4.18,4.02,4.18.57,0,1.23-.16,1.86-.45.55-.27,1.01-.65,1.33-1.09.07-.1.08-.19.03-.29-.06-.12-.2-.21-.34-.22-.08,0-.18.01-.26.12-.27.35-.66.67-1.08.88-.49.24-1.03.38-1.52.38-1.84,0-3.34-1.57-3.34-3.5,0-1.79,1.03-3.02,2.75-3.29.92-.1,2.09-.09,3.07.96.14.15.35.11.48,0,.11-.1.17-.26.02-.42-.78-.82-1.77-1.23-2.94-1.23Z"/>
    </g>
    <g>
      <path class="st0" d="M51.66,204.19c0-.63.95-.62.95,0v7.58c0,.58-.95.61-.95,0v-7.58Z"/>
      <path class="st0" d="M52.13,212.32c-.28,0-.57-.19-.57-.55v-7.58c0-.76,1.16-.75,1.16,0v7.58c0,.36-.3.55-.59.55ZM52.14,203.82c-.18,0-.37.11-.37.36v7.58c0,.24.18.34.36.34s.38-.11.38-.34v-7.58c0-.25-.19-.36-.37-.36Z"/>
    </g>
    <g>
      <path class="st0" d="M55.45,211.25h5.01c.53,0,.61.84,0,.84h-5.34c-.35,0-.58-.25-.58-.56v-6.96c0-.29.23-.55.58-.55h5.35c.55,0,.52.81-.01.81h-5.01v2.85h4.77c.51,0,.53.81,0,.81h-4.77v2.75Z"/>
      <path class="st0" d="M60.46,212.19h-5.34c-.39,0-.69-.29-.69-.66v-6.96c0-.37.3-.65.69-.65h5.35c.2,0,.31.09.38.16.08.09.13.21.13.34,0,.26-.18.52-.52.52h-4.9v2.64h4.66c.32,0,.5.27.5.52,0,.13-.04.25-.12.34-.06.07-.18.16-.37.16h-4.66v2.54h4.9c.35,0,.53.28.53.54,0,.13-.05.26-.13.35-.07.07-.19.16-.4.16ZM55.13,204.13c-.31,0-.48.22-.48.44v6.96c0,.26.2.45.48.45h5.34c.11,0,.19-.03.25-.09.05-.05.07-.12.07-.2,0-.16-.11-.33-.32-.33h-5.11v-2.96h4.87c.21,0,.28-.16.28-.29,0-.15-.09-.31-.28-.31h-4.87v-3.06h5.11c.21,0,.31-.16.31-.31,0-.08-.03-.15-.07-.2-.05-.06-.13-.09-.22-.09h-5.35Z"/>
    </g>
    <g>
      <path class="st0" d="M63.02,212.09c-.32,0-.58-.25-.58-.55v-6.99c0-.29.27-.53.58-.53h2.76c2.52,0,3.78,2.02,3.78,4.03s-1.26,4.03-3.78,4.03h-2.76ZM63.35,211.26h2.43c1.9,0,2.85-1.61,2.85-3.21s-.95-3.22-2.85-3.22h-2.43v6.43Z"/>
      <path class="st0" d="M65.79,212.19h-2.76c-.37,0-.69-.3-.69-.65v-6.99c0-.35.31-.64.69-.64h2.76c2.67,0,3.88,2.14,3.88,4.14s-1.22,4.14-3.88,4.14ZM63.02,204.13c-.26,0-.48.2-.48.43v6.99c0,.23.22.44.48.44h2.76c2.52,0,3.67-2.04,3.67-3.93s-1.15-3.93-3.67-3.93h-2.76ZM65.79,211.37h-2.54v-6.64h2.54c1.47,0,2.96,1.14,2.96,3.33,0,1.6-.93,3.31-2.96,3.31ZM63.46,211.16h2.33c1.89,0,2.75-1.61,2.75-3.1s-.86-3.11-2.75-3.11h-2.33v6.22Z"/>
    </g>
    <g>
      <path class="st0" d="M72.04,209.96l-1.03,2c-.23.47-1.07.14-.84-.37l3.83-7.54c.08-.16.25-.24.42-.24s.32.08.41.24l3.82,7.51c.33.55-.61.86-.85.37l-.99-1.97h-4.77ZM74.42,205.16l-2,3.99h3.99l-1.99-3.99Z"/>
      <path class="st0" d="M70.64,212.29c-.1,0-.19-.02-.28-.06-.23-.11-.42-.37-.28-.68l3.83-7.55c.1-.22.33-.3.51-.3.22,0,.4.11.5.3l3.82,7.51c.1.16.11.34.02.49-.1.18-.34.28-.57.28-.22,0-.4-.12-.49-.31l-.96-1.91h-4.64l-1,1.95c-.1.2-.28.28-.47.28ZM74.42,203.91c-.11,0-.26.05-.32.18l-3.83,7.55c-.09.19.03.33.18.4.17.08.38.06.47-.12l1.06-2.06h4.9l1.02,2.02c.08.16.23.18.31.19.17.01.32-.07.38-.17.05-.08.04-.17-.02-.28l-3.82-7.51c-.08-.15-.21-.18-.31-.18ZM76.58,209.26h-4.34l2.17-4.34,2.16,4.34ZM72.59,209.05h3.65l-1.82-3.65-1.83,3.65Z"/>
    </g>
    <g>
      <path class="st0" d="M80.33,212.09c-.32,0-.58-.25-.58-.55v-6.99c0-.29.27-.53.58-.53h2.76c2.52,0,3.78,2.02,3.78,4.03s-1.26,4.03-3.78,4.03h-2.76ZM80.66,211.26h2.43c1.9,0,2.85-1.61,2.85-3.21s-.95-3.22-2.85-3.22h-2.43v6.43Z"/>
      <path class="st0" d="M83.1,212.19h-2.76c-.37,0-.69-.3-.69-.65v-6.99c0-.35.31-.64.69-.64h2.76c2.67,0,3.88,2.14,3.88,4.14s-1.22,4.14-3.88,4.14ZM80.33,204.13c-.26,0-.48.2-.48.43v6.99c0,.23.22.44.48.44h2.76c2.52,0,3.67-2.04,3.67-3.93s-1.15-3.93-3.67-3.93h-2.76ZM83.1,211.37h-2.54v-6.64h2.54c1.47,0,2.96,1.14,2.96,3.33,0,1.6-.93,3.31-2.96,3.31ZM80.77,211.16h2.33c1.89,0,2.75-1.61,2.75-3.1s-.86-3.11-2.75-3.11h-2.33v6.22Z"/>
    </g>
    <g>
      <path class="st0" d="M91.92,204.19c0-.63.95-.62.95,0v7.58c0,.58-.95.61-.95,0v-7.58Z"/>
      <path class="st0" d="M92.39,212.32c-.28,0-.57-.19-.57-.55v-7.58c0-.76,1.16-.75,1.16,0v7.58c0,.36-.3.55-.59.55ZM92.39,203.82c-.18,0-.37.11-.37.36v7.58c0,.24.18.34.36.34s.38-.11.38-.34v-7.58c0-.25-.19-.36-.37-.36Z"/>
    </g>
    <g>
      <path class="st0" d="M100.52,204.33c0-.53.96-.56.96,0v7.28c0,.63-.87.7-1.14.25l-4.74-6.35.1,1.75v4.48c0,.62-.96.63-.96,0v-7.27c0-.63.71-.74,1.03-.27l4.88,6.53-.13-1.91v-4.49Z"/>
      <path class="st0" d="M95.21,212.31c-.29,0-.58-.2-.58-.58v-7.27c0-.32.16-.56.43-.64.29-.09.61.04.79.31l4.66,6.24-.1-1.56v-4.5c0-.34.3-.51.6-.51.28,0,.58.16.58.51v7.28c0,.3-.18.53-.47.62-.33.09-.7-.04-.87-.31l-4.53-6.06.08,1.4v4.48c0,.38-.3.58-.59.58ZM95.24,204.01s-.08,0-.12.02c-.18.05-.28.21-.28.43v7.27c0,.25.19.36.37.36s.38-.11.38-.36v-4.48l-.12-2.09,4.95,6.63c.14.22.43.28.63.22.09-.03.32-.12.32-.41v-7.28c0-.24-.23-.3-.37-.3-.18,0-.38.09-.38.3v4.49l.15,2.26-5.1-6.82c-.11-.16-.27-.25-.44-.25Z"/>
    </g>
    <g>
      <path class="st0" d="M110.61,204.21c.29-.46.88-.3.88.23v7.3c0,.61-.93.61-.93,0v-5.77l-2.59,4.04c-.2.37-.68.37-.88,0l-2.59-4.03v5.76c0,.61-.93.61-.93,0v-7.3c0-.55.61-.68.86-.23l3.09,4.82,3.07-4.82Z"/>
      <path class="st0" d="M111.02,212.31c-.28,0-.57-.19-.57-.56v-5.41l-2.39,3.74c-.11.2-.31.32-.53.32h0c-.22,0-.41-.13-.52-.33l-2.39-3.72v5.4c0,.74-1.14.74-1.14,0v-7.3c0-.29.16-.53.41-.59.25-.07.51.06.65.31l3,4.67,2.98-4.68c.16-.25.43-.37.68-.3.24.07.39.3.39.58v7.3c0,.37-.29.56-.57.56ZM110.66,205.61v6.13c0,.24.18.35.36.35s.36-.11.36-.35v-7.3c0-.19-.09-.34-.24-.38-.15-.04-.33.04-.44.21l-3.16,4.96-3.18-4.96c-.1-.17-.26-.25-.41-.22-.12.03-.25.15-.25.39v7.3c0,.24.18.35.36.35s.36-.11.36-.35v-6.12l2.78,4.34c.08.14.2.23.34.23h0c.14,0,.27-.08.35-.22l2.78-4.35Z"/>
    </g>
    <g>
      <path class="st0" d="M113.23,207.92c0-1.99,1.34-3.69,3.36-4.01.47-.06.9-.05,1.34,0,1.95.3,3.46,1.93,3.46,4.01,0,2.64-1.9,4.31-4.06,4.31-2.28,0-4.11-1.62-4.11-4.31ZM114.18,207.95c0,2.08,1.37,3.4,3.16,3.4s3.12-1.27,3.12-3.4c0-1.64-1.08-2.94-2.64-3.2-.38-.05-.75-.05-1.1,0-1.53.24-2.54,1.47-2.54,3.2Z"/>
      <path class="st0" d="M117.34,212.33c-2.48,0-4.21-1.82-4.21-4.42,0-2.1,1.42-3.79,3.45-4.11.44-.06.86-.06,1.37,0,2.06.32,3.55,2.05,3.55,4.11,0,2.52-1.79,4.42-4.16,4.42ZM117.24,203.97c-.22,0-.42.01-.63.04-1.92.3-3.27,1.91-3.27,3.9,0,2.48,1.65,4.2,4,4.2s3.95-1.81,3.95-4.2c0-1.96-1.42-3.6-3.37-3.9-.25-.03-.47-.04-.68-.04ZM117.34,211.46c-1.92,0-3.26-1.44-3.26-3.5,0-1.75,1.03-3.05,2.63-3.3.36-.05.75-.05,1.13,0,1.61.26,2.73,1.62,2.73,3.3,0,2.06-1.33,3.5-3.22,3.5ZM117.26,204.83c-.18,0-.36.01-.53.04-1.48.23-2.45,1.45-2.45,3.09,0,1.94,1.25,3.29,3.05,3.29s3.01-1.35,3.01-3.29c0-1.58-1.05-2.85-2.55-3.09-.18-.02-.36-.04-.54-.04Z"/>
    </g>
    <g>
      <path class="st0" d="M126.95,212.09h-3.3c-.25,0-.47-.2-.47-.46v-7.15c0-.25.22-.46.47-.46h3c1.18,0,3.01.39,3.01,2.19,0,.66-.32,1.24-.98,1.51.93.29,1.56.94,1.56,1.97,0,1.89-1.7,2.4-3.3,2.4ZM124.11,204.85v2.59h2.59c1.09,0,2.04-.29,2.04-1.22,0-1.09-1.29-1.37-2.08-1.37h-2.55ZM124.11,211.26h2.84c1.12,0,2.35-.29,2.35-1.57,0-1-.86-1.43-1.97-1.43h-3.22v3Z"/>
      <path class="st0" d="M126.95,212.19h-3.3c-.32,0-.57-.25-.57-.56v-7.15c0-.31.26-.56.57-.56h3c.73,0,3.11.17,3.11,2.3,0,.66-.29,1.19-.81,1.49.9.36,1.39,1.06,1.39,1.98,0,2.18-2.13,2.5-3.4,2.5ZM123.66,204.13c-.2,0-.36.16-.36.35v7.15c0,.19.16.35.36.35h3.3c1.19,0,3.19-.3,3.19-2.29,0-.9-.53-1.56-1.49-1.86l-.28-.09.27-.11c.58-.23.91-.75.91-1.41,0-1.94-2.22-2.09-2.9-2.09h-3ZM126.95,211.37h-2.95v-3.22h3.33c1.3,0,2.07.57,2.07,1.54,0,1.1-.85,1.68-2.45,1.68ZM124.22,211.16h2.73c1.49,0,2.24-.49,2.24-1.47,0-1.2-1.3-1.33-1.86-1.33h-3.11v2.79ZM126.7,207.54h-2.69v-2.8h2.65c1.01,0,2.19.39,2.19,1.47,0,.85-.76,1.32-2.15,1.32ZM124.22,207.33h2.48c.88,0,1.94-.19,1.94-1.11,0-1.23-1.77-1.26-1.97-1.26h-2.44v2.37Z"/>
    </g>
    <g>
      <path class="st0" d="M131.8,204.19c0-.63.95-.62.95,0v7.58c0,.58-.95.61-.95,0v-7.58Z"/>
      <path class="st0" d="M132.26,212.32c-.29,0-.57-.19-.57-.55v-7.58c0-.76,1.16-.75,1.16,0v7.58c0,.36-.3.55-.59.55ZM132.27,203.82c-.18,0-.37.11-.37.36v7.58c0,.24.18.34.36.34s.38-.11.38-.34v-7.58c0-.25-.19-.36-.37-.36Z"/>
    </g>
    <g>
      <path class="st0" d="M135.16,212.09c-.34,0-.48-.16-.48-.47v-7.28c0-.6.94-.6.94,0v6.91h4.74c.65,0,.65.84,0,.84h-5.2Z"/>
      <path class="st0" d="M140.35,212.19h-5.2c-.38,0-.59-.2-.59-.57v-7.28c0-.73,1.15-.73,1.15,0v6.8h4.64c.39,0,.59.26.59.52,0,.14-.05.27-.15.36-.08.07-.21.16-.44.16ZM135.14,204c-.18,0-.36.11-.36.34v7.28c0,.26.11.36.38.36h5.2c.26,0,.38-.16.38-.31s-.12-.31-.38-.31h-4.85v-7.02c0-.24-.18-.34-.36-.34Z"/>
    </g>
    <g>
      <path class="st0" d="M141.89,204.19c0-.63.95-.62.95,0v7.58c0,.58-.95.61-.95,0v-7.58Z"/>
      <path class="st0" d="M142.36,212.32c-.29,0-.57-.19-.57-.55v-7.58c0-.76,1.16-.75,1.16,0v7.58c0,.36-.3.55-.59.55ZM142.36,203.82c-.18,0-.37.11-.37.36v7.58c0,.24.18.34.36.34s.38-.11.38-.34v-7.58c0-.25-.19-.36-.37-.36Z"/>
    </g>
    <g>
      <path class="st0" d="M145.69,209.96l-1.03,2c-.23.47-1.06.14-.84-.37l3.83-7.54c.08-.16.25-.24.42-.24s.32.08.41.24l3.82,7.51c.33.55-.61.86-.85.37l-.99-1.97h-4.77ZM148.08,205.16l-2,3.99h3.99l-1.99-3.99Z"/>
      <path class="st0" d="M144.29,212.29c-.1,0-.19-.02-.28-.06-.23-.11-.42-.37-.28-.68l3.83-7.55c.1-.22.33-.3.51-.3.22,0,.4.11.5.3l3.82,7.51c.1.16.11.34.02.49-.1.17-.31.28-.54.28,0,0-.02,0-.03,0-.22,0-.4-.12-.49-.31l-.96-1.91h-4.64l-1,1.95c-.1.2-.28.28-.47.28ZM148.07,203.91c-.11,0-.26.05-.32.18l-3.83,7.55c-.09.19.03.33.18.4.17.08.38.06.47-.12l1.06-2.06h4.9l1.02,2.02c.08.16.23.18.31.19.15,0,.32-.07.38-.17.05-.08.04-.17-.02-.28l-3.82-7.51c-.08-.15-.21-.18-.31-.18ZM150.24,209.26h-4.34l2.17-4.34,2.16,4.34ZM146.24,209.05h3.65l-1.82-3.65-1.83,3.65Z"/>
    </g>
    <g>
      <path class="st0" d="M154.53,209.26v2.46c0,.58-.93.58-.93.01v-7.28c0-.27.19-.44.47-.44h3c2.19,0,3.31,1.24,3.31,2.73,0,1.28-.7,2.21-2.26,2.47l2.05,2.22c.48.48-.22,1.04-.63.61l-2.56-2.78h-2.46ZM154.53,208.46h2.56c1.66,0,2.38-.77,2.36-1.72-.01-1.04-.89-1.88-2.36-1.88h-2.56v3.6Z"/>
      <path class="st0" d="M159.9,212.3c-.15,0-.3-.06-.42-.19l-2.53-2.74h-2.31v2.35c0,.71-1.14.72-1.14.01v-7.28c0-.32.24-.55.58-.55h3c2.07,0,3.41,1.11,3.41,2.83,0,1.36-.74,2.24-2.16,2.54l1.92,2.08c.16.16.23.36.17.54-.05.18-.21.33-.4.38-.05.01-.09.02-.14.02ZM154.42,209.15h2.61l2.59,2.81c.14.14.28.13.36.11.12-.03.22-.12.25-.23.03-.11-.01-.23-.12-.34l-2.19-2.36.19-.03c1.42-.24,2.17-1.06,2.17-2.37,0-1.59-1.26-2.62-3.2-2.62h-3c-.22,0-.36.13-.36.34v7.28c0,.45.71.44.71-.01v-2.57ZM157.09,208.57h-2.67v-3.81h2.67c1.44,0,2.45.81,2.46,1.98.01.46-.14.86-.44,1.17-.42.43-1.12.66-2.02.66ZM154.63,208.35h2.45c.84,0,1.49-.21,1.87-.6.26-.27.39-.62.38-1.02-.01-1.06-.92-1.77-2.25-1.77h-2.45v3.39Z"/>
    </g>
    <g>
      <path class="st0" d="M162.11,204.19c0-.63.95-.62.95,0v7.58c0,.58-.95.61-.95,0v-7.58Z"/>
      <path class="st0" d="M162.58,212.32c-.29,0-.57-.19-.57-.55v-7.58c0-.76,1.16-.75,1.16,0v7.58c0,.36-.3.55-.59.55ZM162.58,203.82c-.18,0-.37.11-.37.36v7.58c0,.24.18.34.36.34s.38-.11.38-.34v-7.58c0-.25-.19-.36-.37-.36Z"/>
    </g>
    <g>
      <path class="st0" d="M165.92,209.96l-1.03,2c-.23.47-1.06.14-.84-.37l3.83-7.54c.08-.16.25-.24.42-.24s.32.08.41.24l3.82,7.51c.33.55-.61.86-.85.37l-.99-1.97h-4.77ZM168.3,205.16l-2,3.99h3.99l-1.99-3.99Z"/>
      <path class="st0" d="M164.51,212.29c-.1,0-.19-.02-.28-.06-.23-.11-.42-.37-.28-.68l3.83-7.55c.1-.22.33-.3.51-.3.22,0,.4.11.5.3l3.82,7.51c.1.16.11.34.02.49-.1.17-.31.28-.54.28,0,0-.02,0-.03,0-.22,0-.4-.12-.49-.31l-.96-1.91h-4.64l-1,1.95c-.1.2-.28.28-.47.28ZM168.3,203.91c-.11,0-.26.05-.32.18l-3.83,7.55c-.09.19.03.33.18.4.17.08.38.06.47-.12l1.06-2.06h4.9l1.02,2.02c.08.16.23.18.31.19.17,0,.31-.07.38-.17.05-.08.04-.17-.02-.28l-3.82-7.51c-.08-.15-.21-.18-.31-.18ZM170.46,209.26h-4.34l2.17-4.34,2.16,4.34ZM166.47,209.05h3.65l-1.82-3.65-1.83,3.65Z"/>
    </g>
    <g>
      <path class="st0" d="M182.84,211.77c-.61.28-1.29.46-1.9.46-2.17,0-4.12-1.78-4.12-4.29,0-2.08,1.48-3.73,3.44-4.03,1.48-.2,2.78.17,3.78,1.22.38.43-.3.95-.66.57-.86-.91-1.86-1.05-2.98-.93-1.56.24-2.66,1.34-2.66,3.18s1.48,3.4,3.23,3.4c.47,0,.99-.13,1.47-.37.39-.2.77-.51,1.04-.85.29-.43,1.06.04.74.51-.34.48-.82.86-1.37,1.13Z"/>
      <path class="st0" d="M180.94,212.33c-2.37,0-4.23-1.93-4.23-4.39,0-2.08,1.48-3.82,3.52-4.14,1.58-.22,2.88.2,3.87,1.25.23.26.14.56-.04.72-.2.18-.54.24-.78,0-.73-.77-1.59-1.04-2.89-.89-1.61.25-2.57,1.4-2.57,3.08,0,1.82,1.4,3.29,3.13,3.29.46,0,.96-.13,1.42-.36.39-.2.75-.5,1-.82.1-.14.25-.22.45-.21.22.02.42.15.51.34.08.16.06.34-.05.5-.34.48-.83.88-1.41,1.16h0c-.66.3-1.35.47-1.95.47ZM181.01,203.96c-.24,0-.49.02-.74.05-1.94.3-3.34,1.95-3.34,3.93,0,2.34,1.76,4.18,4.02,4.18.57,0,1.23-.16,1.86-.45.55-.27,1.01-.65,1.33-1.09.07-.1.08-.19.03-.29-.06-.12-.2-.21-.34-.22-.07,0-.18.01-.26.12-.27.35-.66.67-1.08.88-.49.24-1.03.38-1.52.38-1.84,0-3.34-1.57-3.34-3.5,0-1.79,1.03-3.02,2.75-3.29.92-.1,2.09-.09,3.07.96.14.15.35.11.48,0,.11-.1.17-.26.02-.42-.78-.82-1.77-1.23-2.94-1.23Z"/>
    </g>
    <g>
      <path class="st0" d="M186.67,209.96l-1.03,2c-.23.47-1.06.14-.84-.37l3.83-7.54c.08-.16.25-.24.42-.24s.32.08.41.24l3.82,7.51c.33.55-.61.86-.85.37l-.99-1.97h-4.77ZM189.05,205.16l-2,3.99h3.99l-1.99-3.99Z"/>
      <path class="st0" d="M185.27,212.29c-.1,0-.19-.02-.28-.06-.23-.11-.42-.37-.28-.68l3.83-7.55c.1-.22.33-.3.51-.3.22,0,.4.11.5.3l3.82,7.51c.1.16.11.34.02.49-.1.17-.31.28-.54.28,0,0-.02,0-.03,0-.22,0-.4-.12-.49-.31l-.96-1.91h-4.64l-1,1.95c-.1.2-.28.28-.47.28ZM189.05,203.91c-.11,0-.26.05-.32.18l-3.83,7.55c-.09.19.03.33.18.4.16.08.38.06.47-.12l1.06-2.06h4.9l1.02,2.02c.08.16.23.18.31.19,0,0,.01,0,.02,0,.15,0,.3-.07.36-.17.05-.08.04-.17-.02-.28l-3.82-7.51c-.08-.15-.21-.18-.31-.18ZM191.22,209.26h-4.34l2.17-4.34,2.16,4.34ZM187.22,209.05h3.65l-1.82-3.65-1.83,3.65Z"/>
    </g>
    <g>
      <path class="st0" d="M200.3,204.33c0-.53.96-.56.96,0v7.28c0,.63-.88.7-1.14.25l-4.74-6.35.1,1.75v4.48c0,.62-.96.63-.96,0v-7.27c0-.63.71-.74,1.03-.27l4.88,6.53-.13-1.91v-4.49Z"/>
      <path class="st0" d="M195,212.31c-.29,0-.58-.2-.58-.58v-7.27c0-.32.16-.56.43-.64.29-.09.61.04.79.31l4.66,6.24-.1-1.56v-4.5c0-.34.3-.51.6-.51.28,0,.58.16.58.51v7.28c0,.3-.18.53-.47.62-.34.09-.7-.04-.87-.31l-4.53-6.06.08,1.4v4.48c0,.38-.3.58-.59.58ZM195.02,204.01s-.08,0-.12.02c-.18.05-.28.21-.28.43v7.27c0,.25.19.36.37.36s.38-.11.38-.36v-4.48l-.12-2.1,4.95,6.63c.13.22.43.28.63.22.1-.03.32-.12.32-.41v-7.28c0-.24-.23-.3-.37-.3-.18,0-.38.09-.38.3v4.49l.15,2.26-5.09-6.82c-.11-.16-.27-.25-.44-.25Z"/>
    </g>
    <g>
      <path class="st0" d="M204.27,209.96l-1.03,2c-.23.47-1.06.14-.84-.37l3.83-7.54c.08-.16.25-.24.42-.24s.32.08.41.24l3.82,7.51c.33.55-.61.86-.85.37l-.99-1.97h-4.77ZM206.65,205.16l-2,3.99h3.99l-1.99-3.99Z"/>
      <path class="st0" d="M202.87,212.29c-.1,0-.19-.02-.28-.06-.23-.11-.42-.37-.28-.68l3.83-7.55c.1-.22.33-.3.51-.3.22,0,.4.11.5.3l3.82,7.51c.1.16.11.34.02.49-.1.17-.31.28-.54.28,0,0-.02,0-.03,0-.22,0-.4-.12-.49-.31l-.96-1.91h-4.64l-1,1.95c-.1.2-.28.28-.47.28ZM206.65,203.91c-.11,0-.26.05-.32.18l-3.83,7.55c-.09.19.03.33.18.4.17.08.38.06.47-.12l1.06-2.06h4.9l1.02,2.02c.08.16.23.18.31.19.17,0,.31-.07.38-.17.05-.08.04-.17-.02-.28l-3.82-7.51c-.08-.15-.21-.18-.31-.18ZM208.82,209.26h-4.34l2.17-4.34,2.16,4.34ZM204.82,209.05h3.65l-1.82-3.65-1.83,3.65Z"/>
    </g>
    <g>
      <path class="st0" d="M213.11,209.26v2.46c0,.58-.93.58-.93.01v-7.28c0-.27.19-.44.47-.44h3c2.19,0,3.31,1.24,3.31,2.73,0,1.28-.7,2.21-2.26,2.47l2.05,2.22c.48.48-.22,1.04-.63.61l-2.56-2.78h-2.46ZM213.11,208.46h2.56c1.66,0,2.38-.77,2.36-1.72-.01-1.04-.89-1.88-2.36-1.88h-2.56v3.6Z"/>
      <path class="st0" d="M218.47,212.3c-.15,0-.3-.06-.42-.19l-2.53-2.74h-2.31v2.35c0,.71-1.14.72-1.14.01v-7.28c0-.32.24-.55.58-.55h3c2.07,0,3.41,1.11,3.41,2.83,0,1.36-.74,2.24-2.16,2.54l1.92,2.08c.16.16.23.36.17.54-.05.18-.21.33-.4.38-.05.01-.09.02-.14.02ZM213,209.15h2.61l2.59,2.81c.14.14.28.13.36.11.12-.03.22-.12.25-.23.03-.11-.01-.23-.12-.34l-2.19-2.36.19-.03c1.42-.24,2.17-1.06,2.17-2.37,0-1.59-1.26-2.62-3.2-2.62h-3c-.22,0-.36.13-.36.34v7.28c0,.45.71.44.71-.01v-2.57ZM215.67,208.57h-2.67v-3.81h2.67c1.44,0,2.45.81,2.46,1.98.01.46-.14.86-.44,1.17-.42.43-1.12.66-2.02.66ZM213.21,208.35h2.45c.84,0,1.49-.21,1.87-.6.26-.27.39-.62.38-1.02-.01-1.06-.92-1.77-2.25-1.77h-2.45v3.39Z"/>
    </g>
    <g>
      <path class="st0" d="M220.69,204.19c0-.63.95-.62.95,0v7.58c0,.58-.95.61-.95,0v-7.58Z"/>
      <path class="st0" d="M221.16,212.32c-.29,0-.57-.19-.57-.55v-7.58c0-.76,1.16-.75,1.16,0v7.58c0,.36-.3.55-.59.55ZM221.16,203.82c-.18,0-.37.11-.37.36v7.58c0,.24.18.34.36.34s.38-.11.38-.34v-7.58c0-.25-.19-.36-.37-.36Z"/>
    </g>
    <g>
      <path class="st0" d="M224.49,209.96l-1.03,2c-.23.47-1.06.14-.84-.37l3.83-7.54c.08-.16.25-.24.42-.24s.32.08.41.24l3.82,7.51c.33.55-.61.86-.85.37l-.99-1.97h-4.77ZM226.88,205.16l-2,3.99h3.99l-1.99-3.99Z"/>
      <path class="st0" d="M223.09,212.29c-.1,0-.19-.02-.28-.06-.23-.11-.42-.37-.28-.68l3.83-7.55c.1-.22.33-.3.51-.3.22,0,.4.11.5.3l3.82,7.51c.1.16.11.34.02.49-.1.17-.31.28-.54.28,0,0-.02,0-.03,0-.22,0-.4-.12-.49-.31l-.96-1.91h-4.64l-1,1.95c-.1.2-.28.28-.47.28ZM226.88,203.91c-.11,0-.26.05-.32.18l-3.83,7.55c-.09.19.03.33.18.4.17.08.38.06.47-.12l1.06-2.06h4.9l1.02,2.02c.08.16.23.18.31.19,0,0,.01,0,.02,0,.15,0,.3-.07.36-.17.05-.08.04-.17-.02-.28l-3.82-7.51c-.08-.15-.21-.18-.31-.18ZM229.04,209.26h-4.34l2.17-4.34,2.16,4.34ZM225.04,209.05h3.65l-1.82-3.65-1.83,3.65Z"/>
    </g>
  </g>
</svg>